<svg xmlns="http://www.w3.org/2000/svg" xmlns:xlink="http://www.w3.org/1999/xlink" width="254.795" height="83.347" viewBox="0 0 254.795 83.347"><path fill="#231F20" d="M254.795 72.082c0 6.22-5.042 11.264-11.261 11.264H11.263C5.044 83.347 0 78.302 0 72.082V11.263C0 5.044 5.044 0 11.263 0h232.27c6.219 0 11.261 5.044 11.261 11.263v60.819z"/><defs><path id="a" d="M55.217 36.687l-11.489-6.633-22.161-12.796c-1.231-.71-2.456-.28-2.456 1.204v52.132c0 1.113.876 1.593 1.945.976l22.672-13.091 11.488-6.633 11.044-6.375c1.296-.749 1.171-1.775.078-2.364-1.093-.588-11.121-6.42-11.121-6.42z"/></defs><clipPath id="b"><use xlink:href="#a" overflow="visible"/></clipPath><linearGradient id="c" gradientUnits="userSpaceOnUse" x1="33.342" y1="16.046" x2="33.342" y2="72.488"><stop offset="0" stop-color="#287db0"/><stop offset=".269" stop-color="#4a93b5"/><stop offset=".761" stop-color="#78bbba"/><stop offset="1" stop-color="#8acebc"/></linearGradient><path clip-path="url(#b)" fill="url(#c)" d="M19.111 16.046v56.442l28.462-28.221z"/><linearGradient id="d" gradientUnits="userSpaceOnUse" x1="19.111" y1="30.054" x2="55.217" y2="30.054"><stop offset="0" stop-color="#53c0ac"/><stop offset="1" stop-color="#dee89a"/></linearGradient><path clip-path="url(#b)" fill="url(#d)" d="M55.217 36.687l-11.489-6.633-24.617-14.213v.205l28.462 28.221z"/><linearGradient id="e" gradientUnits="userSpaceOnUse" x1="37.164" y1="44.267" x2="37.164" y2="72.693"><stop offset="0" stop-color="#eb413d"/><stop offset=".17" stop-color="#d84453"/><stop offset=".577" stop-color="#b0497a"/><stop offset=".862" stop-color="#944a92"/><stop offset="1" stop-color="#894b9d"/></linearGradient><path clip-path="url(#b)" fill="url(#e)" d="M19.111 72.488v.205l24.617-14.214 11.489-6.632-7.644-7.58z"/><linearGradient id="f" gradientUnits="userSpaceOnUse" x1="57.96" y1="36.687" x2="57.96" y2="51.847"><stop offset="0" stop-color="#f58879"/><stop offset=".11" stop-color="#f68f79"/><stop offset=".71" stop-color="#fbb777"/><stop offset="1" stop-color="#fec774"/></linearGradient><path clip-path="url(#b)" fill="url(#f)" d="M55.217 36.687l-7.644 7.58 7.644 7.58 13.129-7.58z"/><path d="M198.293 55.3c-1.069 0-2.045-.197-2.928-.591a5.529 5.529 0 0 1-2.225-1.819h-.18c.12.958.18 1.867.18 2.725v6.754h-2.485V38.586h2.021l.344 2.247h.12c.64-.899 1.384-1.548 2.232-1.947.848-.399 1.822-.599 2.92-.599 2.177 0 3.857.744 5.04 2.232 1.183 1.488 1.775 3.575 1.775 6.26 0 2.696-.602 4.79-1.804 6.284-1.202 1.491-2.872 2.237-5.01 2.237zm-.359-14.902c-1.677 0-2.89.465-3.639 1.393-.749.929-1.133 2.407-1.154 4.434v.554c0 2.307.385 3.957 1.154 4.95.769.993 2.002 1.49 3.699 1.49 1.419 0 2.53-.574 3.334-1.722.803-1.148 1.205-2.731 1.205-4.748 0-2.046-.402-3.617-1.205-4.71-.805-1.094-1.936-1.641-3.394-1.641zm12.93 14.603h-2.486V31.697h2.486v23.304zm14.294 0l-.495-2.337h-.12c-.819 1.029-1.635 1.726-2.449 2.089-.813.365-1.83.547-3.047.547-1.627 0-2.903-.419-3.827-1.258-.924-.839-1.386-2.031-1.386-3.579 0-3.314 2.651-5.052 7.952-5.212l2.787-.09v-1.018c0-1.288-.277-2.24-.832-2.853-.554-.615-1.441-.921-2.658-.921-1.368 0-2.916.419-4.643 1.258l-.764-1.902a11.669 11.669 0 0 1 2.659-1.033 11.49 11.49 0 0 1 2.898-.375c1.957 0 3.407.434 4.351 1.303.943.869 1.415 2.262 1.415 4.179v11.202h-1.841zm-5.616-1.752c1.547 0 2.762-.424 3.647-1.273.883-.848 1.326-2.037 1.326-3.565v-1.482l-2.487.104c-1.977.071-3.401.377-4.276.922-.873.544-1.31 1.39-1.31 2.538 0 .898.271 1.583.816 2.051.544.47 1.304.705 2.284.705zm8.901-14.663h2.665l3.595 9.361c.789 2.137 1.278 3.679 1.469 4.628h.12c.13-.51.402-1.381.816-2.615.415-1.233 1.77-5.024 4.066-11.374h2.667l-7.055 18.691c-.699 1.847-1.515 3.158-2.449 3.933-.933.773-2.079 1.159-3.436 1.159-.759 0-1.508-.085-2.248-.254v-1.992a8.66 8.66 0 0 0 1.843.18c1.708 0 2.925-.958 3.654-2.876l.913-2.336-6.62-16.505zm-76.203 1.525c.789.653 2.437 2.025 2.437 4.636 0 2.539-1.442 3.743-2.884 4.874-.447.446-.961.928-.961 1.684 0 .754.515 1.166.894 1.475l1.237.959c1.51 1.271 2.882 2.439 2.882 4.809 0 3.227-3.125 6.488-9.029 6.488-4.979 0-7.381-2.368-7.381-4.911 0-1.236.615-2.985 2.644-4.189 2.127-1.305 5.013-1.474 6.557-1.58-.482-.617-1.03-1.27-1.03-2.332 0-.583.172-.927.343-1.341-.379.035-.756.069-1.1.069-3.638 0-5.698-2.713-5.698-5.389 0-1.58.722-3.331 2.196-4.601 1.958-1.614 4.292-1.889 6.148-1.889h7.071l-2.197 1.236h-2.129zm-2.439 15.245c-.274-.036-.447-.036-.789-.036-.309 0-2.165.07-3.606.552-.755.272-2.953 1.097-2.953 3.535 0 2.436 2.37 4.19 6.044 4.19 3.294 0 5.047-1.582 5.047-3.709.001-1.754-1.133-2.677-3.743-4.532zm.997-6.524c.789-.791.856-1.888.856-2.507 0-2.471-1.476-6.316-4.324-6.316-.894 0-1.854.446-2.404 1.133-.583.721-.756 1.647-.756 2.54 0 2.3 1.339 6.111 4.293 6.111.858.001 1.783-.411 2.335-.961zm-20.172 5.974c-5.45 0-8.363-4.251-8.363-8.091 0-4.491 3.667-8.328 8.879-8.328 5.037 0 8.19 3.94 8.19 8.089 0 4.044-3.118 8.33-8.706 8.33zm4.283-2.775c.824-1.098 1.03-2.468 1.03-3.806 0-3.017-1.44-8.775-5.69-8.775a4.772 4.772 0 0 0-3.084 1.168c-1.337 1.198-1.578 2.707-1.578 4.183 0 3.391 1.68 8.976 5.828 8.976 1.336-.001 2.708-.651 3.494-1.746zm-22.862 2.775c-5.45 0-8.364-4.251-8.364-8.091 0-4.491 3.669-8.328 8.879-8.328 5.038 0 8.191 3.94 8.191 8.089 0 4.044-3.118 8.33-8.706 8.33zm4.285-2.775c.823-1.098 1.029-2.468 1.029-3.806 0-3.017-1.44-8.775-5.691-8.775-1.13 0-2.262.447-3.084 1.168-1.337 1.198-1.577 2.707-1.577 4.183 0 3.391 1.679 8.976 5.828 8.976 1.336-.001 2.707-.651 3.495-1.746zm-15.268 2.238l-4.929 1.137c-2 .311-3.791.584-5.685.584-9.513 0-13.13-6.996-13.13-12.476 0-6.685 5.134-12.886 13.923-12.886 1.861 0 3.652.275 5.271.723 2.585.724 3.791 1.619 4.549 2.137l-2.861 2.722-1.205.274.862-1.379c-1.171-1.136-3.31-3.238-7.374-3.238-5.445 0-9.547 4.137-9.547 10.167 0 6.477 4.687 12.577 12.199 12.577 2.208 0 3.343-.448 4.377-.862v-5.547l-5.203.275 2.756-1.483h7.306l-.895.861c-.243.208-.276.277-.345.551-.036.311-.068 1.311-.068 1.656v4.207z" fill="#F9F9F9"/><path fill="#F9F9F9" d="M163.132 53.277c-1.138-.104-1.376-.309-1.376-1.655V32.117l.018-.222c.139-1.205.483-1.412 1.553-2.033h-4.93l-2.586 1.241h2.635v.016l-.002-.013v21.275c0 .688-.136.792-.93 1.825h6.1l1.275-.756c-.584-.071-1.17-.104-1.757-.173zm14.023.317c-.375.206-.752.447-1.127.616-1.132.513-2.295.65-3.323.65-1.093 0-2.805-.071-4.552-1.335-2.428-1.712-3.489-4.656-3.489-7.222 0-5.304 4.312-7.905 7.837-7.905 1.232 0 2.5.307 3.527.959 1.709 1.127 2.155 2.599 2.392 3.386l-8.04 3.253-2.636.205c.854 4.346 3.797 6.877 7.05 6.877 1.745 0 3.012-.615 4.175-1.196l-1.814 1.712zm-3.216-10.2c.649-.239.991-.445.991-.923 0-1.368-1.539-2.943-3.389-2.943-1.37 0-3.936 1.061-3.936 4.757 0 .582.069 1.198.104 1.816l6.23-2.707z"/><path d="M84.165 23.919h-1.712c0-.235-.162-.902-.487-2.001h-2.472c-.335 1.081-.503 1.748-.503 2.001H77.38c0-.139.416-1.281 1.25-3.425.833-2.144 1.25-3.325 1.25-3.543h2.023c0 .203.377 1.367 1.132 3.491.753 2.125 1.13 3.284 1.13 3.477zm-2.472-3.024c-.61-1.841-.915-2.836-.915-2.986h-.086c0 .139-.316 1.134-.947 2.986h1.948zm9.372 3.024h-1.322c0-.146-.491-.918-1.472-2.317-1.027-1.474-1.613-2.481-1.755-3.023h-.086c.089.781.134 1.488.134 2.119 0 .881.025 1.955.075 3.221h-1.316c.054-1.106.08-2.32.08-3.644 0-1.302-.027-2.41-.08-3.323h1.589c0 .189.441.944 1.322 2.264.938 1.402 1.477 2.353 1.616 2.852h.08a20.09 20.09 0 0 1-.128-2.141c0-.967-.025-1.959-.075-2.975h1.338c-.05.885-.075 1.993-.075 3.323 0 1.341.025 2.555.075 3.644zm7.756-3.725a3.949 3.949 0 0 1-.974 2.654c-.649.756-1.559 1.134-2.729 1.134a49.86 49.86 0 0 1-2.183-.064c.046-1.078.07-2.292.07-3.644 0-1.298-.023-2.406-.07-3.323h.936c.153 0 .382-.005.685-.016.303-.011.501-.016.594-.016 1.288 0 2.222.321 2.801.963.58.643.87 1.413.87 2.312zm-1.461.23c0-.685-.2-1.262-.599-1.731-.4-.469-1.01-.703-1.83-.703-.153 0-.364.016-.631.048.036.714.054 1.459.054 2.237 0 .853.018 1.698.053 2.536.232.046.464.07.696.07.767 0 1.335-.238 1.704-.715.369-.476.553-1.057.553-1.742zm8.613 3.495h-1.584c-.414-1.263-.731-2.042-.953-2.339-.221-.296-.578-.444-1.07-.444-.207 0-.405.002-.594.005 0 .917.016 1.843.048 2.777h-1.488c.046-1.078.07-2.292.07-3.644 0-1.298-.023-2.406-.07-3.323h.926c.107 0 .331-.005.672-.016s.656-.016.944-.016c1.637 0 2.456.56 2.456 1.68 0 .888-.468 1.507-1.402 1.857v.08c.36.1.676.381.947.843.272.462.638 1.309 1.098 2.54zm-2.007-4.924c0-.71-.457-1.065-1.37-1.065-.335 0-.631.025-.888.075.039.553.059 1.274.059 2.162.196.007.362.011.498.011 1.134 0 1.701-.394 1.701-1.183zm9.678 1.312c0 1.095-.335 2.003-1.006 2.724-.671.72-1.5 1.081-2.488 1.081-.942 0-1.73-.331-2.365-.993-.635-.662-.953-1.503-.953-2.523 0-1.095.335-2.003 1.006-2.724.671-.72 1.5-1.081 2.488-1.081.942 0 1.73.33 2.365.99.635.66.953 1.501.953 2.526zm-1.477.155c0-.746-.191-1.35-.573-1.814-.382-.464-.853-.696-1.413-.696-.521 0-.963.234-1.327.701-.364.467-.546 1.058-.546 1.771 0 .742.192 1.346.575 1.811.383.466.854.699 1.41.699.521 0 .963-.234 1.327-.704.365-.469.547-1.059.547-1.768zm4.502 3.457h-1.514c.046-1.106.07-2.32.07-3.644 0-1.302-.023-2.41-.07-3.323h1.514a66.65 66.65 0 0 0-.07 3.323c.001 1.344.024 2.559.07 3.644zm7.757-3.725a3.949 3.949 0 0 1-.974 2.654c-.649.756-1.559 1.134-2.729 1.134a49.86 49.86 0 0 1-2.183-.064c.046-1.078.07-2.292.07-3.644 0-1.298-.023-2.406-.07-3.323h.936c.153 0 .382-.005.685-.016.303-.011.501-.016.594-.016 1.288 0 2.222.321 2.801.963.58.643.87 1.413.87 2.312zm-1.461.23c0-.685-.2-1.262-.599-1.731-.4-.469-1.01-.703-1.83-.703-.153 0-.364.016-.631.048.036.714.054 1.459.054 2.237 0 .853.018 1.698.054 2.536.232.046.464.07.696.07.767 0 1.335-.238 1.704-.715.367-.476.552-1.057.552-1.742zm11.75 3.495h-1.712c0-.235-.162-.902-.487-2.001h-2.472c-.335 1.081-.503 1.748-.503 2.001h-1.61c0-.139.416-1.281 1.249-3.425.833-2.144 1.249-3.325 1.249-3.543h2.023c0 .203.378 1.367 1.132 3.491.754 2.125 1.131 3.284 1.131 3.477zm-2.472-3.024c-.61-1.841-.916-2.836-.916-2.986h-.086c0 .139-.315 1.134-.947 2.986h1.949zm8.714-2.119c0 .853-.317 1.482-.95 1.889-.633.407-1.41.61-2.33.61-.168 0-.287-.003-.359-.011 0 .671.019 1.555.059 2.654h-1.504c.046-1.031.07-2.246.07-3.644 0-1.284-.023-2.392-.07-3.323h.931c.132 0 .385-.005.76-.016s.699-.016.974-.016c.678 0 1.25.153 1.718.46s.701.773.701 1.397zm-1.38.294c0-.763-.506-1.145-1.52-1.145-.253 0-.521.027-.803.08.039.674.059 1.438.059 2.29.089.007.193.011.31.011 1.303.001 1.954-.412 1.954-1.236zm7.798-.294c0 .853-.317 1.482-.95 1.889-.633.407-1.41.61-2.331.61-.168 0-.287-.003-.359-.011 0 .671.019 1.555.059 2.654h-1.504c.046-1.031.07-2.246.07-3.644 0-1.284-.023-2.392-.07-3.323h.931c.132 0 .385-.005.76-.016s.699-.016.974-.016c.678 0 1.25.153 1.718.46.469.307.702.773.702 1.397zm-1.38.294c0-.763-.506-1.145-1.52-1.145-.253 0-.521.027-.803.08.039.674.059 1.438.059 2.29.089.007.193.011.31.011 1.303.001 1.954-.412 1.954-1.236zm11.874 1.237c0 1.095-.335 2.003-1.006 2.724-.671.72-1.5 1.081-2.488 1.081-.942 0-1.73-.331-2.365-.993-.635-.662-.953-1.503-.953-2.523 0-1.095.335-2.003 1.006-2.724.671-.72 1.5-1.081 2.488-1.081.942 0 1.73.33 2.365.99.635.66.953 1.501.953 2.526zm-1.477.155c0-.746-.191-1.35-.573-1.814-.382-.464-.853-.696-1.413-.696-.521 0-.963.234-1.327.701-.364.467-.546 1.058-.546 1.771 0 .742.192 1.346.576 1.811.383.466.853.699 1.41.699.521 0 .963-.234 1.327-.704.364-.469.546-1.059.546-1.768zm8.73 3.457H163.8c0-.146-.49-.918-1.472-2.317-1.027-1.474-1.613-2.481-1.755-3.023h-.086c.089.781.134 1.488.134 2.119 0 .881.025 1.955.075 3.221h-1.316c.053-1.106.08-2.32.08-3.644 0-1.302-.027-2.41-.08-3.323h1.589c0 .189.441.944 1.322 2.264.938 1.402 1.477 2.353 1.616 2.852h.08a20.09 20.09 0 0 1-.128-2.141c0-.967-.025-1.959-.075-2.975h1.338c-.05.885-.075 1.993-.075 3.323 0 1.341.025 2.555.075 3.644z" fill="#F9F9FA"/></svg>