<svg xmlns="http://www.w3.org/2000/svg" width="254.795" height="83.347" viewBox="0 0 254.795 83.347"><path fill="#231F20" d="M254.795 72.082c0 6.22-5.042 11.264-11.261 11.264H11.263C5.044 83.347 0 78.302 0 72.082V11.263C0 5.044 5.044 0 11.263 0h232.27c6.219 0 11.261 5.044 11.261 11.263v60.819z"/><path fill="#FFF" d="M44.005 14.254H23.25a4.503 4.503 0 0 0-4.504 4.504v45.981a4.505 4.505 0 0 0 4.504 4.506h20.755a4.505 4.505 0 0 0 4.506-4.506V18.758a4.504 4.504 0 0 0-4.506-4.504zM33.628 65.937a3 3 0 1 1 .002-6 3 3 0 0 1-.002 6zm11.345-7.462h-22.69V24.559h22.689v33.916zm20.536-36.026l-1.261 3.82h-1.622l4.127-12.148h1.893l4.145 12.148h-1.676l-1.297-3.82h-4.309zm3.982-1.225l-1.207-3.497c-.253-.794-.433-1.514-.613-2.216h-.053c-.162.702-.361 1.46-.595 2.198l-1.189 3.515h3.657zm4.921-3.678l1.712 4.885c.289.81.523 1.532.704 2.252h.054c.199-.72.45-1.442.738-2.252l1.695-4.885h1.658l-3.426 8.723h-1.514l-3.314-8.723h1.693zm13.86 6.634c0 .756.037 1.494.127 2.089h-1.424l-.145-1.099h-.053c-.468.686-1.424 1.297-2.668 1.297-1.766 0-2.667-1.243-2.667-2.504 0-2.11 1.874-3.263 5.244-3.245v-.18c0-.72-.199-2.037-1.981-2.017-.83 0-1.676.233-2.29.647l-.362-1.065c.722-.449 1.785-.755 2.884-.755 2.687 0 3.334 1.82 3.334 3.569v3.263zm-1.55-2.362c-1.731-.036-3.693.27-3.693 1.965 0 1.044.684 1.514 1.476 1.514 1.155 0 1.892-.722 2.146-1.46.054-.163.072-.343.072-.505v-1.514zm4.756-5.876c-.593 0-.99-.468-.99-1.027 0-.559.415-1.008 1.027-1.008.614 0 1.01.45 1.01 1.008 0 .559-.396 1.027-1.026 1.027h-.021zm-.755 10.327v-8.723h1.586v8.723h-1.586zm4.126-12.795h1.586v12.795h-1.586V13.474zm10.273 10.706c0 .756.036 1.494.126 2.089h-1.425l-.144-1.099h-.053c-.469.686-1.424 1.297-2.669 1.297-1.765 0-2.667-1.243-2.667-2.504 0-2.11 1.875-3.263 5.246-3.245v-.18c0-.72-.199-2.037-1.984-2.017-.828 0-1.676.233-2.287.647l-.362-1.065c.721-.449 1.786-.755 2.884-.755 2.685 0 3.334 1.82 3.334 3.569v3.263zm-1.55-2.362c-1.73-.036-3.696.27-3.696 1.965 0 1.044.685 1.514 1.478 1.514 1.154 0 1.893-.722 2.145-1.46.055-.163.072-.343.072-.505v-1.514zm3.999-8.344h1.586v5.46h.037c.558-.972 1.566-1.586 2.972-1.586 2.164 0 3.678 1.802 3.678 4.434 0 3.136-1.983 4.686-3.929 4.686-1.261 0-2.254-.487-2.919-1.64h-.038l-.09 1.442h-1.367c.054-.596.07-1.477.07-2.252V13.474zm1.586 9.3c0 .197.018.395.056.576.305 1.098 1.243 1.856 2.378 1.856 1.677 0 2.649-1.351 2.649-3.353 0-1.766-.901-3.26-2.594-3.26-1.081 0-2.092.756-2.398 1.945-.053.199-.09.415-.09.667v1.569zm8.579-9.3h1.585v12.795h-1.585V13.474zm5.027 8.704c.036 2.145 1.387 3.028 2.974 3.028 1.137 0 1.838-.199 2.416-.433l.287 1.117c-.557.252-1.532.559-2.919.559-2.667 0-4.289-1.784-4.289-4.397 0-2.649 1.567-4.722 4.111-4.722 2.845 0 3.585 2.506 3.585 4.108a4.1 4.1 0 0 1-.054.758l-6.111-.018zm4.632-1.134c.018-.992-.415-2.579-2.182-2.579-1.619 0-2.306 1.478-2.432 2.579h4.614zm10.686 5.424c-2.343 0-4.182-1.73-4.182-4.488 0-2.92 1.929-4.632 4.326-4.632 2.504 0 4.198 1.82 4.198 4.469 0 3.245-2.253 4.65-4.325 4.65h-.017zm.054-1.189c1.514 0 2.648-1.424 2.648-3.407 0-1.478-.738-3.335-2.612-3.335-1.857 0-2.667 1.73-2.667 3.389 0 1.911 1.081 3.353 2.613 3.353h.018zm6.2-5.37c0-.92-.02-1.64-.075-2.362h1.407l.09 1.423h.036c.433-.809 1.442-1.621 2.883-1.621 1.207 0 3.085.721 3.085 3.713v5.208h-1.589v-5.03c0-1.403-.522-2.594-2.019-2.594-1.027 0-1.837.739-2.126 1.622a2.364 2.364 0 0 0-.108.74v5.262h-1.584v-6.361zm15.551-4.452v2.089h2.269v1.207h-2.269v4.704c0 1.081.306 1.694 1.188 1.694.434 0 .687-.036.921-.108l.07 1.207a4.313 4.313 0 0 1-1.404.216c-.741 0-1.336-.253-1.714-.666-.431-.488-.612-1.263-.612-2.29v-4.758h-1.35v-1.207h1.35v-1.604l1.551-.484zm3.964-1.983h1.586v5.442h.035a2.822 2.822 0 0 1 1.136-1.117 3.082 3.082 0 0 1 1.623-.451c1.17 0 3.043.721 3.043 3.731v5.19h-1.584V21.26c0-1.423-.523-2.597-2.02-2.597-1.027 0-1.819.722-2.125 1.586-.09.216-.109.451-.109.758v5.262h-1.586V13.474zm10.812 8.704c.036 2.145 1.387 3.028 2.973 3.028 1.135 0 1.839-.199 2.417-.433l.287 1.117c-.559.252-1.532.559-2.921.559-2.666 0-4.289-1.784-4.289-4.397 0-2.649 1.568-4.722 4.11-4.722 2.847 0 3.587 2.506 3.587 4.108a4.1 4.1 0 0 1-.054.758l-6.11-.018zm4.633-1.134c.016-.992-.415-2.579-2.181-2.579-1.621 0-2.309 1.478-2.433 2.579h4.614zm7.893-5.102c-.596 0-.993-.468-.993-1.027 0-.559.414-1.008 1.028-1.008.612 0 1.009.45 1.009 1.008 0 .559-.397 1.027-1.029 1.027h-.015zm-.759 10.327v-8.723h1.586v8.723h-1.586zm4.181-11.985c.756-.143 1.748-.252 3.01-.252 1.549 0 2.685.36 3.404 1.01.667.576 1.083 1.459 1.083 2.54 0 1.099-.325 1.965-.956 2.594-.828.884-2.18 1.334-3.712 1.334-.467 0-.9-.018-1.261-.107v4.865h-1.568V14.284zm1.568 5.839c.341.091.794.127 1.298.127 1.91 0 3.045-.936 3.045-2.577 0-1.622-1.135-2.396-2.865-2.396-.684 0-1.206.071-1.478.126v4.72zm7.786-6.649h1.587v5.442h.036a2.83 2.83 0 0 1 1.134-1.117 3.092 3.092 0 0 1 1.623-.451c1.171 0 3.045.721 3.045 3.731v5.19h-1.585V21.26c0-1.423-.523-2.597-2.02-2.597-1.025 0-1.818.722-2.126 1.586-.09.216-.108.451-.108.758v5.262h-1.587V13.474zm13.463 12.994c-2.343 0-4.182-1.73-4.182-4.488 0-2.92 1.929-4.632 4.327-4.632 2.504 0 4.197 1.82 4.197 4.469 0 3.245-2.252 4.65-4.324 4.65h-.018zm.055-1.189c1.511 0 2.648-1.424 2.648-3.407 0-1.478-.738-3.335-2.614-3.335-1.855 0-2.668 1.73-2.668 3.389 0 1.911 1.081 3.353 2.613 3.353h.021zm6.198-5.37c0-.92-.018-1.64-.072-2.362h1.406l.09 1.423h.037c.433-.809 1.442-1.621 2.883-1.621 1.207 0 3.08.721 3.08 3.713v5.208h-1.584v-5.03c0-1.403-.523-2.594-2.02-2.594-1.026 0-1.837.739-2.125 1.622a2.334 2.334 0 0 0-.111.74v5.262h-1.584v-6.361zm10.812 2.269c.036 2.145 1.388 3.028 2.974 3.028 1.134 0 1.838-.199 2.414-.433l.289 1.117c-.56.252-1.532.559-2.92.559-2.667 0-4.29-1.784-4.29-4.397 0-2.649 1.568-4.722 4.109-4.722 2.848 0 3.587 2.506 3.587 4.108 0 .325-.017.577-.054.758l-6.109-.018zm4.633-1.134c.018-.992-.415-2.579-2.181-2.579-1.623 0-2.307 1.478-2.433 2.579h4.614zM72.976 34.498L62.29 65.953h4.893l3.191-9.659H80.72l3.281 9.659h5.029L78.297 34.498h-5.321zm2.535 5.171a80.95 80.95 0 0 0 1.25 4.437l2.88 8.34h-8.196l2.84-8.394a69.285 69.285 0 0 0 1.226-4.383zm27.347 2.983c-3.241 0-5.838 1.251-7.566 3.629l-.189-3.129H90.75l.026.4c.127 1.949.182 4.094.182 7.175v24.245h4.758V63.657c1.477 1.767 3.835 2.795 6.506 2.795 2.782 0 5.344-1.09 7.212-3.066 2.084-2.203 3.184-5.37 3.184-9.154 0-3.344-.955-6.234-2.766-8.358-1.773-2.078-4.255-3.222-6.994-3.222zm-1.186 3.939c4.242 0 6.141 3.93 6.141 7.824 0 5.023-2.422 8.144-6.321 8.144a5.768 5.768 0 0 1-5.606-4.416c-.11-.404-.17-.938-.17-1.541v-3.827c0-.346.078-.767.152-1.174.023-.13.049-.26.068-.387.709-2.723 3.065-4.623 5.736-4.623zm25.692-3.939c-3.241 0-5.837 1.251-7.567 3.629l-.189-3.129h-4.352l.025.4c.128 1.951.183 4.094.183 7.175v24.245h4.76V63.657c1.475 1.767 3.832 2.795 6.503 2.795 2.783 0 5.345-1.09 7.215-3.066 2.082-2.203 3.183-5.37 3.183-9.154 0-3.344-.956-6.234-2.766-8.358-1.773-2.078-4.256-3.222-6.995-3.222zm-1.184 3.939c4.241 0 6.139 3.93 6.139 7.824 0 5.023-2.424 8.144-6.322 8.144a5.77 5.77 0 0 1-5.607-4.416c-.11-.404-.167-.938-.167-1.541v-3.827c0-.348.075-.771.152-1.178l.069-.383c.708-2.723 3.064-4.623 5.736-4.623zm31.886 1.235c-4.442-1.72-5.865-3.073-5.865-5.572 0-2.105 1.672-4.227 5.41-4.227 3.083 0 5.056 1.072 5.587 1.402l.404.249 1.343-3.972-.266-.155c-.797-.468-3.069-1.555-6.93-1.555-6.069 0-10.307 3.583-10.307 8.712 0 4.136 2.654 7.027 8.354 9.098 4.038 1.51 5.541 3.057 5.541 5.707 0 3.001-2.319 4.863-6.049 4.863-2.429 0-4.93-.709-6.859-1.945l-.413-.265-1.277 4.064.234.156c1.796 1.2 5.178 2.068 8.042 2.068 8.18 0 11.08-4.987 11.08-9.259-.001-4.403-2.327-7.12-8.029-9.369zm16.594-10.093l-4.668 1.465v3.954h-3.416v3.804h3.416v11.651c0 2.817.539 4.791 1.648 6.038 1.063 1.166 2.699 1.808 4.604 1.808 1.8 0 3.077-.355 3.679-.568l.267-.094-.228-3.811-.456.141c-.601.184-1.22.256-2.213.256-1.845 0-2.632-1.168-2.632-3.906V46.956h5.74v-3.804h-5.74v-5.419zm17.535 4.919c-6.659 0-11.309 4.969-11.309 12.083 0 6.9 4.5 11.718 10.944 11.718h.045c5.448 0 11.309-3.795 11.309-12.128 0-3.389-1.048-6.299-3.033-8.418-1.997-2.129-4.748-3.255-7.956-3.255zm-.137 3.757c4.282 0 6.23 4.173 6.23 8.053 0 4.771-2.659 8.234-6.32 8.234h-.046c-3.61 0-6.23-3.405-6.23-8.096 0-4.077 1.968-8.191 6.366-8.191zm25.702-3.537l-.285-.072a4.558 4.558 0 0 0-1.184-.148c-2.49 0-4.724 1.466-5.967 3.831l-.14-3.331h-4.27l.027.4c.126 1.884.18 3.999.18 6.853l-.045 15.547h4.76V53.823c0-.66.046-1.285.13-1.844.538-2.914 2.503-4.797 5.008-4.797.487 0 .871.04 1.278.08l.509.053v-4.443zm10.701-.265c-6.336 0-10.762 5.062-10.762 12.31 0 6.98 4.403 11.491 11.216 11.491 3.583 0 6.076-.787 7.535-1.445l.286-.129-.914-3.546-.398.16c-1.297.527-3.02 1.066-5.963 1.066-2.068 0-6.835-.682-7.128-6.9l15.362.046.061-.304c.097-.484.144-1.135.144-1.987.001-4.965-2.471-10.762-9.439-10.762zm-.318 3.62c1.45 0 2.626.449 3.494 1.333 1.369 1.393 1.609 3.445 1.638 4.43h-10.852c.44-2.748 2.16-5.763 5.72-5.763z"/></svg>