<svg xmlns="http://www.w3.org/2000/svg" width="254.795" height="83.346" viewBox="0 0 254.795 83.346"><path fill="#231F20" d="M0 0v83.346h254.795V0z"/><path fill="#FFF" d="M31.966 22.732c-1.911.671-3.309 1.245-3.309 4.9v1.754l1.145-.229v-1.516c-.027-2.478.616-2.997 2.288-3.719a5.984 5.984 0 0 0-.124-1.19zm3.331-.783c.078.355.136.74.177 1.154 2.992-.43 2.937.805 2.937 3.383v.95l1.133-.232v-.718c.001-4.005-.625-5.077-4.247-4.537z"/><path fill="#FFF" d="M23.499 30.42v-5.266c-.037-3.264 1.648-4.265 4.757-4.99 4.686-1.099 4.984 1.92 4.984 3.841v4.464l1.148-.229v-4.136c-.012-3.636-1.146-6.358-6.358-5.177-2.808.637-5.679 1.352-5.679 6.118v5.603l1.148-.228zm21.779-2.975l-31.522 6.301v22.928l31.522 6.306 6.302-2.294V29.738l-6.302-2.293zM27.597 51.93l-7.062-.986v-5.91h7.062v6.896zm0-7.423h-7.062V38.92l7.062-.986v6.573zm9.624 8.769l-9.101-1.293v-6.949h9.101v8.242zm0-8.769H28.12v-6.628l9.101-1.29v7.918zm27.324-19.088c.96-.144 2.101-.253 3.35-.253 2.264 0 3.876.526 4.944 1.521 1.087.996 1.72 2.409 1.72 4.383 0 1.992-.616 3.621-1.757 4.745-1.141 1.141-3.024 1.757-5.397 1.757-1.123 0-2.065-.055-2.861-.145V25.419zm1.576 10.794c.398.072.978.09 1.594.09 3.368 0 5.198-1.884 5.198-5.18.018-2.879-1.612-4.708-4.944-4.708-.815 0-1.43.072-1.847.163v9.635zm18.256-3.205c0 3.241-2.246 4.654-4.365 4.654-2.372 0-4.201-1.739-4.201-4.51 0-2.933 1.92-4.653 4.346-4.653 2.517 0 4.22 1.829 4.22 4.509zm-6.954.09c0 1.919 1.105 3.368 2.662 3.368 1.521 0 2.662-1.43 2.662-3.405 0-1.484-.742-3.368-2.626-3.368s-2.698 1.739-2.698 3.405zm9.187-4.401l1.159 4.455c.253.978.489 1.884.652 2.789h.054c.199-.886.489-1.829.779-2.77l1.43-4.473h1.34l1.358 4.383c.326 1.05.58 1.974.779 2.861h.054c.145-.886.38-1.811.67-2.843l1.25-4.401h1.576l-2.825 8.766h-1.449l-1.34-4.184c-.308-.978-.561-1.847-.779-2.879h-.036c-.218 1.05-.489 1.956-.797 2.898l-1.412 4.165h-1.449l-2.644-8.766h1.63zm12.525 2.373c0-.906-.018-1.648-.072-2.373h1.413l.09 1.449h.036c.435-.833 1.449-1.647 2.898-1.647 1.213 0 3.097.724 3.097 3.73v5.234h-1.594V32.41c0-1.412-.525-2.589-2.028-2.589-1.05 0-1.865.742-2.137 1.63a2.302 2.302 0 0 0-.109.742v5.271h-1.594V31.07zm9.751-6.465h1.594v12.858h-1.594V24.605zm11.989 8.403c0 3.241-2.246 4.654-4.364 4.654-2.372 0-4.201-1.739-4.201-4.51 0-2.933 1.919-4.653 4.346-4.653 2.517 0 4.219 1.829 4.219 4.509zm-6.954.09c0 1.919 1.105 3.368 2.662 3.368 1.521 0 2.662-1.43 2.662-3.405 0-1.484-.742-3.368-2.626-3.368s-2.698 1.739-2.698 3.405zm13.661 4.365l-.127-1.105h-.054c-.489.688-1.431 1.304-2.68 1.304-1.775 0-2.68-1.25-2.68-2.517 0-2.119 1.883-3.278 5.27-3.261v-.181c0-.724-.199-2.028-1.992-2.028-.815 0-1.666.254-2.282.653l-.362-1.051c.724-.471 1.775-.778 2.879-.778 2.68 0 3.332 1.829 3.332 3.585v3.278c0 .762.036 1.504.145 2.102h-1.449zm-.236-4.474c-1.739-.037-3.712.271-3.712 1.974 0 1.032.688 1.521 1.503 1.521 1.141 0 1.865-.725 2.119-1.467.054-.163.09-.344.09-.507v-1.521zm11.469-8.384v10.594c0 .779.018 1.666.072 2.264h-1.431l-.072-1.522h-.036c-.489.978-1.557 1.721-2.988 1.721-2.119 0-3.749-1.793-3.749-4.455-.018-2.916 1.793-4.708 3.93-4.708 1.34 0 2.246.633 2.644 1.34h.036v-5.234h1.594zm-1.593 7.661c0-.199-.018-.472-.072-.671-.236-1.014-1.105-1.846-2.3-1.846-1.648 0-2.626 1.449-2.626 3.387 0 1.774.869 3.241 2.59 3.241 1.068 0 2.046-.707 2.336-1.901a2.79 2.79 0 0 0 .072-.688v-1.522zm8.237 5.197v-7.552h-1.231v-1.214h1.231v-.416c0-1.231.272-2.355 1.014-3.061.598-.58 1.394-.814 2.137-.814.561 0 1.05.127 1.358.253l-.218 1.232c-.235-.109-.561-.199-1.014-.199-1.358 0-1.702 1.195-1.702 2.535v.471h2.119v1.214h-2.119v7.552h-1.575zm5.014-6.031c0-1.032-.018-1.919-.073-2.735h1.394l.054 1.721h.073c.398-1.177 1.358-1.919 2.426-1.919.182 0 .308.017.453.054v1.503a2.407 2.407 0 0 0-.543-.054c-1.122 0-1.919.851-2.137 2.047a4.52 4.52 0 0 0-.072.742v4.673h-1.575v-6.032zm13.526 1.576c0 3.241-2.245 4.654-4.364 4.654-2.372 0-4.201-1.739-4.201-4.51 0-2.933 1.919-4.653 4.346-4.653 2.517 0 4.219 1.829 4.219 4.509zm-6.954.09c0 1.919 1.105 3.368 2.662 3.368 1.521 0 2.662-1.43 2.662-3.405 0-1.484-.742-3.368-2.626-3.368-1.882 0-2.698 1.739-2.698 3.405zm8.746-2.028c0-.906-.018-1.648-.073-2.373h1.394l.073 1.413h.054c.489-.834 1.304-1.611 2.753-1.611 1.195 0 2.1.724 2.481 1.756h.036c.272-.489.616-.869.978-1.141.525-.399 1.105-.615 1.938-.615 1.159 0 2.879.76 2.879 3.802v5.162h-1.557V32.5c0-1.684-.616-2.698-1.902-2.698-.905 0-1.611.67-1.883 1.449a2.641 2.641 0 0 0-.127.797v5.415h-1.558v-5.252c0-1.394-.616-2.409-1.829-2.409-.996 0-1.72.797-1.974 1.594-.09.235-.127.506-.127.778v5.289h-1.557V31.07zM66.538 59.939l-3.097-12.205h1.666l1.449 6.175c.362 1.521.688 3.042.905 4.219h.036c.199-1.213.58-2.662.996-4.238l1.63-6.157h1.648l1.485 6.193c.344 1.449.67 2.898.851 4.184h.036c.254-1.34.598-2.698.978-4.219l1.612-6.157h1.612l-3.459 12.205h-1.648l-1.539-6.356c-.38-1.558-.634-2.752-.797-3.984h-.036a37.925 37.925 0 0 1-.942 3.984l-1.739 6.356h-1.647zm14.928-11.228c.018.544-.381.978-1.014.978-.561 0-.96-.434-.96-.978a.97.97 0 0 1 .996-.995c.598-.001.978.433.978.995zm-1.775 11.228v-8.765h1.594v8.765h-1.594zm3.911-6.393c0-.905-.018-1.648-.072-2.372h1.413l.09 1.449h.036c.435-.833 1.449-1.648 2.898-1.648 1.213 0 3.097.725 3.097 3.73v5.234H89.47v-5.052c0-1.413-.525-2.591-2.028-2.591-1.05 0-1.865.743-2.137 1.63a2.308 2.308 0 0 0-.109.743v5.269h-1.594v-6.392zm17.402-6.465v10.595c0 .779.018 1.665.072 2.263h-1.431l-.072-1.521h-.036c-.489.978-1.557 1.72-2.988 1.72-2.119 0-3.749-1.792-3.749-4.455-.018-2.916 1.793-4.708 3.93-4.708 1.34 0 2.246.633 2.644 1.34h.036v-5.234h1.594zm-1.594 7.66a2.83 2.83 0 0 0-.072-.67c-.236-1.015-1.105-1.847-2.3-1.847-1.648 0-2.626 1.449-2.626 3.387 0 1.775.869 3.241 2.59 3.241 1.068 0 2.046-.706 2.336-1.901.054-.218.072-.434.072-.688v-1.522zm11.951.743c0 3.242-2.246 4.654-4.365 4.654-2.372 0-4.201-1.739-4.201-4.509 0-2.934 1.92-4.654 4.346-4.654 2.517 0 4.22 1.829 4.22 4.509zm-6.954.09c0 1.921 1.105 3.369 2.662 3.369 1.521 0 2.662-1.432 2.662-3.405 0-1.485-.742-3.368-2.626-3.368s-2.698 1.739-2.698 3.404zm9.187-4.4l1.159 4.455c.254.978.489 1.883.652 2.789h.054c.199-.888.489-1.829.779-2.77l1.431-4.473h1.34l1.358 4.383c.326 1.05.58 1.973.779 2.861h.054c.145-.888.38-1.811.67-2.844l1.25-4.4h1.575l-2.825 8.765h-1.449l-1.34-4.183c-.308-.978-.561-1.847-.779-2.88h-.036c-.217 1.05-.489 1.956-.797 2.898l-1.413 4.165h-1.449l-2.644-8.765h1.631zm12.187 7.135c.471.308 1.304.634 2.101.634 1.159 0 1.702-.58 1.702-1.304 0-.76-.453-1.177-1.63-1.611-1.576-.561-2.318-1.43-2.318-2.482 0-1.412 1.141-2.571 3.024-2.571.887 0 1.666.253 2.155.543l-.399 1.159a3.415 3.415 0 0 0-1.793-.506c-.942 0-1.467.543-1.467 1.195 0 .725.525 1.05 1.666 1.485 1.521.58 2.3 1.34 2.3 2.644 0 1.539-1.195 2.625-3.278 2.625-.96 0-1.847-.235-2.463-.597l.4-1.214zm11.28-10.431a18.24 18.24 0 0 1 3.024-.235c1.558 0 2.698.362 3.423 1.014.67.58 1.068 1.467 1.068 2.554 0 1.104-.326 1.973-.941 2.608-.833.886-2.191 1.34-3.731 1.34-.471 0-.905-.018-1.268-.109v4.889h-1.575V47.878zm1.575 5.885c.344.09.779.127 1.304.127 1.902 0 3.061-.924 3.061-2.608 0-1.611-1.141-2.39-2.879-2.39-.688 0-1.213.054-1.486.126v4.745zm7.521-6.682h1.594v5.47h.036a2.962 2.962 0 0 1 1.141-1.123 3.286 3.286 0 0 1 1.63-.452c1.177 0 3.06.725 3.06 3.749v5.216h-1.594v-5.035c0-1.412-.525-2.608-2.028-2.608-1.032 0-1.847.725-2.137 1.594-.09.218-.108.452-.108.76v5.288h-1.594V47.081zm17.754 8.403c0 3.242-2.245 4.654-4.364 4.654-2.372 0-4.201-1.739-4.201-4.509 0-2.934 1.919-4.654 4.346-4.654 2.517 0 4.219 1.829 4.219 4.509zm-6.955.09c0 1.921 1.105 3.369 2.662 3.369 1.521 0 2.662-1.432 2.662-3.405 0-1.485-.743-3.368-2.626-3.368s-2.698 1.739-2.698 3.404zm8.746-2.028c0-.905-.018-1.648-.073-2.372h1.413l.09 1.449h.036c.435-.833 1.449-1.648 2.898-1.648 1.213 0 3.097.725 3.097 3.73v5.234h-1.594v-5.052c0-1.413-.525-2.591-2.028-2.591-1.05 0-1.865.743-2.137 1.63a2.31 2.31 0 0 0-.108.743v5.269h-1.594v-6.392zm10.741 2.301c.037 2.154 1.413 3.042 3.006 3.042 1.141 0 1.829-.199 2.427-.452l.271 1.141c-.561.253-1.521.543-2.916.543-2.698 0-4.31-1.774-4.31-4.418s1.558-4.727 4.111-4.727c2.861 0 3.622 2.517 3.622 4.129 0 .326-.037.58-.054.743h-6.157zm4.672-1.142c.018-1.014-.417-2.589-2.21-2.589-1.611 0-2.318 1.485-2.445 2.589h4.655zm7.187 3.314a5.58 5.58 0 0 0 2.825.797c1.611 0 2.553-.851 2.553-2.083 0-1.141-.652-1.792-2.3-2.426-1.992-.707-3.223-1.739-3.223-3.46 0-1.901 1.575-3.313 3.948-3.313 1.25 0 2.155.29 2.698.597l-.435 1.286a4.85 4.85 0 0 0-2.318-.58c-1.666 0-2.3.996-2.3 1.829 0 1.141.743 1.703 2.427 2.355 2.064.797 3.115 1.792 3.115 3.586 0 1.883-1.394 3.513-4.274 3.513-1.177 0-2.463-.344-3.115-.779l.399-1.322zm10.417-9.362v2.517h2.282v1.213h-2.282v4.727c0 1.087.308 1.703 1.195 1.703.417 0 .724-.055.924-.109l.073 1.196c-.308.126-.797.217-1.413.217-.743 0-1.341-.235-1.721-.67-.452-.471-.616-1.25-.616-2.281v-4.781h-1.358v-1.213h1.358v-2.1l1.558-.419zm11.577 6.827c0 3.242-2.245 4.654-4.364 4.654-2.372 0-4.201-1.739-4.201-4.509 0-2.934 1.919-4.654 4.346-4.654 2.517 0 4.219 1.829 4.219 4.509zm-6.955.09c0 1.921 1.105 3.369 2.662 3.369 1.521 0 2.662-1.432 2.662-3.405 0-1.485-.742-3.368-2.626-3.368-1.882 0-2.698 1.739-2.698 3.404zm8.746-1.665c0-1.033-.018-1.919-.073-2.735h1.394l.054 1.72h.073c.398-1.177 1.358-1.919 2.426-1.919.182 0 .308.018.453.054v1.504a2.347 2.347 0 0 0-.543-.055c-1.123 0-1.919.852-2.137 2.047a4.41 4.41 0 0 0-.073.743v4.672h-1.575v-6.031zm6.491 1.938c.037 2.154 1.413 3.042 3.006 3.042 1.141 0 1.829-.199 2.427-.452l.271 1.141c-.561.253-1.521.543-2.916.543-2.698 0-4.31-1.774-4.31-4.418s1.558-4.727 4.111-4.727c2.861 0 3.622 2.517 3.622 4.129 0 .326-.037.58-.054.743h-6.157zm4.672-1.142c.018-1.014-.417-2.589-2.21-2.589-1.611 0-2.318 1.485-2.445 2.589h4.655z"/></svg>