<svg id="Ebene_1" data-name="Ebene 1" xmlns="http://www.w3.org/2000/svg" viewBox="0 0 100 100"><defs><style>.cls-1{fill:#149cd6}.cls-2{fill:#fff}</style></defs><title>ex-2-1</title><path class="cls-1" d="M21.33 24.41h25.7v3.21h-25.7zm20.85 42.13a19.71 19.71 0 0 0-8-1.52 19.71 19.71 0 0 0-8 1.52 9.92 9.92 0 0 0-2.75 1.69 1.61 1.61 0 0 0 2.22 2.33 7.06 7.06 0 0 1 1.84-1.08 16.53 16.53 0 0 1 6.7-1.25 16.53 16.53 0 0 1 6.7 1.25 7.06 7.06 0 0 1 1.84 1.08 1.61 1.61 0 0 0 2.22-2.33 9.92 9.92 0 0 0-2.77-1.69zM38.79 76.6a8.17 8.17 0 0 0-9.21 0A6.08 6.08 0 0 0 28 78.15a1.61 1.61 0 1 0 2.7 1.75 3.11 3.11 0 0 1 .73-.69 5 5 0 0 1 5.47 0 3.11 3.11 0 0 1 .73.69 1.61 1.61 0 1 0 2.7-1.75 6.08 6.08 0 0 0-1.54-1.55z"/><path class="cls-1" d="M43.82 19.57v49.3l-9.63 15.22-9.64-15.23V19.57a4.8 4.8 0 0 1 4.84-4.8H39a4.81 4.81 0 0 1 4.82 4.8zm-14.44-8a8 8 0 0 0-8.05 8v49.77a1.61 1.61 0 0 0 .25.86l11.24 17.72a1.61 1.61 0 0 0 2.71 0l11.26-17.73a1.61 1.61 0 0 0 .25-.86V19.57a8 8 0 0 0-8.05-8z"/><path class="cls-1" d="M27.76 24.41h3.21v41.77h-3.21zm9.64 0h3.21v41.77H37.4zm19.27-12.85H76a3.16 3.16 0 0 1 3.2 3.07v71a3.15 3.15 0 0 1-3.2 3.04H56.67a3.16 3.16 0 0 1-3.2-3.07v-71a3.15 3.15 0 0 1 3.2-3.04zM76 14.77v70.68H56.68V14.77z"/><path class="cls-2" d="M56.7 14.72h19.15v70.63H56.7z"/><path class="cls-1" d="M69.53 24.41h9.64v3.21h-9.64zm-6.43 9.64h16.06v3.21H63.1zm6.43 9.64h9.64v3.21h-9.64zm-6.43 9.63h16.06v3.21H63.1zm6.43 9.64h9.64v3.21h-9.64zM63.1 72.6h16.06v3.21H63.1z"/></svg>