<svg id="Ebene_1" data-name="Ebene 1" xmlns="http://www.w3.org/2000/svg" viewBox="0 0 100 100"><defs><style>.cls-1{fill:#149cd6}</style></defs><title>ex-2-3</title><path class="cls-1" d="M70.12 31.7H45.75v15.18h24.37V31.7zM66.5 43.26H49.37v-7.93H66.5z"/><path class="cls-1" d="M50.85 37.56h14.16v3.62H50.85z"/><path class="cls-1" d="M77.15 17.76V12.5h-37.6a5.1 5.1 0 0 0-5.09 5.1v8.92H23.38a5.1 5.1 0 0 0-5.09 5.1v53.65a5.1 5.1 0 0 0 5.09 4.9H67v-14h16.15V17.76zm-39.07-.16a1.47 1.47 0 0 1 1.47-1.47h34V66H38.08zm-16.16 14a1.47 1.47 0 0 1 1.47-1.47h11.06v41.13a5.1 5.1 0 0 0 5.09 4.9h17.82V80H21.91zm41.44 54.94h-40a1.47 1.47 0 1 1 0-2.93H61v-7.46h2.38v10.39zm16.16-14l-39.42.1-.56-.1a1.47 1.47 0 1 1 0-2.93h37.6V21.39h2.38z"/></svg>