<svg id="Ebene_1" data-name="Ebene 1" xmlns="http://www.w3.org/2000/svg" viewBox="0 0 100 100"><defs><style>.cls-1{fill:#149cd6}.cls-2{fill:#fff}</style></defs><title>ex-1-1</title><path class="cls-1" d="M47.35 74.67h5.6v9h-5.6z"/><path class="cls-2" d="M66.02 30.49V17.42H30.51l-9.13 6.53 9.16 6.54h35.48zM38.94 47.3h-4.67v13.07h35.48l9.17-6.54-9.14-6.53H38.94z"/><path class="cls-1" d="M47.35 81.25h-8.7a2.81 2.81 0 0 0 .29 5.6h22.41a2.8 2.8 0 0 0 .08-5.6h-8.48v-6.58h-5.6zm38.72-29.04a2.8 2.8 0 0 0-.68-.68l-13.07-9.34a2.8 2.8 0 0 0-1.63-.5H52.95v-5.6h15.87a2.8 2.8 0 0 0 2.8-2.8V14.62a2.8 2.8 0 0 0-2.8-2.8H29.31a2.8 2.8 0 0 0-1.34.5L14.9 21.65a2.8 2.8 0 0 0 0 4.58L28 35.57a2.8 2.8 0 0 0 1.63.53h17.72v5.6H31.18a2.8 2.8 0 0 0-2.51 2.8v18.67a2.8 2.8 0 0 0 2.8 2.8h15.88v8.69h5.6V66h17.74a2.8 2.8 0 0 0 1.63-.53l13.08-9.36a2.8 2.8 0 0 0 .67-3.9zM30.54 30.49L21.38 24l9.13-6.54H66v13.03H30.54zm39.22 29.88H34.27V47.3h35.51l9.13 6.54z"/></svg>