<svg id="Ebene_1" xmlns="http://www.w3.org/2000/svg" viewBox="0 0 100 100"><style>.st0{fill:#149cd6}</style><path class="st0" d="M86.7 46H13.3c-2.1 0-3.8 1.7-3.8 3.8v25.3c0 2.1 1.7 3.8 3.8 3.8h73.4c2.1 0 3.8-1.7 3.8-3.8V49.8c0-2.1-1.7-3.8-3.8-3.8zM88 75.1c0 .7-.6 1.3-1.3 1.3H13.3c-.7 0-1.3-.6-1.3-1.3V49.8c0-.7.6-1.3 1.3-1.3h73.4c.7 0 1.3.6 1.3 1.3v25.3z"/><path class="st0" d="M67.7 66.3h-2.5v2.5h5.1v-7.6h-2.6zm-5 5h7.6v2.5h-7.6zm-43-10.1h45.5v2.5H19.7zm-5.1 0h2.5v2.5h-2.5zm0-10.1h2.5v2.5h-2.5zm0 15.2h5.1v2.5h-5.1zm0 5h7.6v2.5h-7.6zm10.1 0h35.4v2.5H24.7zm-2.5-5h40.5v2.5H22.2zm-7.6-10.2h55.7v2.5H14.6zm58.2 0h12.7v2.5H72.8zm-53.1-5h50.6v2.5H19.7zm53.1 10.1h12.7v2.5H72.8zm7.6 7.6h-2.5v2.5h-2.6v2.6h7.6v-2.6h-2.5zM43.7 41h11.4c4.9 0 8.9-4 8.9-8.9s-4-8.9-8.9-8.9H43.7c-4.9 0-8.9 4-8.9 8.9s4 8.9 8.9 8.9zm17.7-8.9c0 3.5-2.8 6.3-6.3 6.3H50V25.8h5.1c3.5 0 6.3 2.8 6.3 6.3zm-17.7-6.3h3.8v12.7h-3.8c-3.5 0-6.3-2.8-6.3-6.3s2.8-6.4 6.3-6.4z"/><path class="st0" d="M39.9 30.8H45v2.5h-5.1z"/></svg>