<svg id="Ebene_1" data-name="Ebene 1" xmlns="http://www.w3.org/2000/svg" viewBox="0 0 100 100"><defs><style>.cls-1{fill:#149cd6}</style></defs><title>ex-2-5</title><path class="cls-1" d="M73.33 58H26.67a1.33 1.33 0 1 0 0 2.67h46.66a1.33 1.33 0 1 0 0-2.67zM56 51.33h17.33a1.33 1.33 0 1 0 0-2.67H56a1.33 1.33 0 0 0 0 2.67zM56 42h17.33a1.33 1.33 0 1 0 0-2.67H56A1.33 1.33 0 0 0 56 42zm0-9.33h17.33a1.33 1.33 0 1 0 0-2.67H56a1.33 1.33 0 0 0 0 2.67zM73.33 74H26.67a1.33 1.33 0 1 0 0 2.67h46.66a1.33 1.33 0 1 0 0-2.67zm-46.66-5.33h18.66a1.33 1.33 0 1 0 0-2.67H26.67a1.33 1.33 0 1 0 0 2.67zM73.33 66H56a1.33 1.33 0 0 0 0 2.67h17.33a1.33 1.33 0 1 0 0-2.67zm-21.72 2.28a1.4 1.4 0 0 0 .39-.95 1.34 1.34 0 0 0-.39-.93 1.33 1.33 0 1 0-.95 2.27 1.4 1.4 0 0 0 .95-.39z"/><path class="cls-1" d="M82.67 15.33H49.33v-4A1.33 1.33 0 0 0 48 10H26.67a1.33 1.33 0 0 0-1.33 1.33v4h-8A1.33 1.33 0 0 0 16 16.67v72A1.33 1.33 0 0 0 17.33 90h65.34A1.33 1.33 0 0 0 84 88.67v-72a1.33 1.33 0 0 0-1.33-1.34zM28 16.67v-4h18.67V46l-8.53-6.4a1.33 1.33 0 0 0-1.6 0L28 46zm53.33 70.66H18.67V18h6.67v30.67a1.33 1.33 0 0 0 2.13 1.07l9.87-7.4 9.87 7.4a1.34 1.34 0 0 0 .36.19h.5a1.31 1.31 0 0 0 .53-.13 1.34 1.34 0 0 0 .73-1.19V18h32z"/></svg>