<svg id="Ebene_1" data-name="Ebene 1" xmlns="http://www.w3.org/2000/svg" viewBox="0 0 100 100"><defs><style>.cls-1{fill:#149cd6}</style></defs><title>ex-2-2</title><path class="cls-1" d="M88.07 43l-6.63-7.08a7.6 7.6 0 0 0-.24-.81l-6.92-19.26a7.56 7.56 0 0 0-9.68-4.56l-15.52 5.58a7.57 7.57 0 0 0-4.56 9.67l.26.73-1.84.66-3.72 1.34.9 2.49-.88.31-.69 1.48v.07h-.07L37 32.91l-1.54.55-2 .73-1.54.55-.7 1.48v.07h-.07l-1.48-.7-1.67.52-1.83.66-1.54.56-.63 1.48v.07h-.07l-1.47-.7-1.53.55-2.84 1-1.51.54-.71 1.43-2.67 5.41-1.81 3.67L15 52.44l5.5 2.47 1.45.65 1.5-.54 21.36-7.67a8.37 8.37 0 0 0 1.84 3.11l.59.63-1.54 1.49-3.21 3 2 2.16-.76.71-.06 1.83v.08h-.07l-1.83-.05-1.33 1.25-1.76 1.65-1.34 1.25-.06 1.82v.09h-.08l-1.83-.06L34 67.56 32.45 69l-1.34 1.3-.05 1.83v.09H31l-1.82-.06-1.37 1.24-2.46 2.29L24 76.9v1.78l-.34 6.72-.27 4.6H28l6.73.1h1.78l1.3-1.22 21.78-20.4 1.18-1.1 1-.94.59.63a8.45 8.45 0 0 0 11.93.39l13.39-12.52A8.44 8.44 0 0 0 88.07 43zm-65.9 7.81l-4.89-2.2 2.37-4.81 2.49-.89L26 44.7l1.82-3.85 1.48-.53 3.95 1.83 1.78-3.88 1.68-.6 3.91 1.77 1.81-3.83 3.3-1.18-.9-2.5 1.41-.51 4.15-1.49-1.49-4.15-.26-.73a3.16 3.16 0 0 1 1.9-4l15.56-5.62a3.16 3.16 0 0 1 4 1.9l3.8 10.57-1.47-1.57a8.44 8.44 0 0 0-11.93-.39L47.09 38.52a8.39 8.39 0 0 0-2.44 4.22zm62.49.91L71.23 64.3a4 4 0 0 1-5.71-.19l-3.6-3.85-4.22 4-1.18 1.1-21.77 20.37-6.75-.11.34-6.72 2.46-2.29 4.5.15.14-4.5L37 70.78l4.5.16.15-4.5 1.76-1.65 4.5.15.14-4.5L50.74 58l-2-2.16 4.8-4.5-3.6-3.85a4 4 0 0 1-.9-1.6 4.07 4.07 0 0 1-.17-1v-.07a4.31 4.31 0 0 1 0-.44v-.25c0-.08 0-.25.07-.37a4 4 0 0 1 .19-.58c0-.07.07-.14.1-.2a4 4 0 0 1 .25-.44l.12-.18a4 4 0 0 1 .48-.55l13.46-12.65a4 4 0 0 1 5.71.19l8 8.53 3.38 3.61L84.86 46a4 4 0 0 1-.19 5.72z"/><path class="cls-1" d="M66.35 39.73a2.17 2.17 0 0 0-3.17 3l8 8.49a2.17 2.17 0 1 0 3.17-3z"/></svg>