<svg id="Ebene_1" data-name="Ebene 1" xmlns="http://www.w3.org/2000/svg" viewBox="0 0 100 100"><defs><style>.cls-1{fill:#149cd6}</style></defs><title>ex-2-4</title><path class="cls-1" d="M85.08 28.14h-1.92V26.3c0-2.29-1.36-4-3.42-4a2.74 2.74 0 0 0-.61.07c-.17 0-16.25 3.32-28.88 13.42a76 76 0 0 0-7.56-5.12v-2c0-3.52-.43-7.11-5.82-9L30 17.26a6.18 6.18 0 0 0-2.1-.39c-3.24 0-5.17 2.93-5.17 5.76-.81-.2-1.27-.29-1.3-.3a7.37 7.37 0 0 0-1-.07 4 4 0 0 0-3.9 4v1.89h-1.92a4.43 4.43 0 0 0-4.42 4.42v34.8c0 2.15 2.38 4 4 4.34v3.8a4.76 4.76 0 0 0 4.65 4.57h25c.7.79 2.23 2.38 4 2.38h5.11c1.77 0 3.3-1.59 4-2.38h25.86a4.46 4.46 0 0 0 4.31-4.57v-4.1a4.16 4.16 0 0 0 2.38-4V32.56a4.43 4.43 0 0 0-4.42-4.42zM82.81 76.9H58.26a84.19 84.19 0 0 1 24.9-5.08v3.69c-.01.56.2 1.39-.35 1.39zm-65.5-1.39v-3.65a75.31 75.31 0 0 1 25.08 5h-23.6a1.9 1.9 0 0 1-1.48-1.35zm-3.18-42.95c0-.56.18-1 .73-1 0 0 .85 0 1.65.06v29.49a5.18 5.18 0 0 0 3.94 4.84 70.79 70.79 0 0 1 14.92 5 93.73 93.73 0 0 0-20.28-2.53 1 1 0 0 1-1-1zm6.4-6.85A47.82 47.82 0 0 1 26 27.25v22.18a1.76 1.76 0 0 0 1 1.34 1.74 1.74 0 0 0 1.64 0l5.46-3 5.88 7a1.58 1.58 0 0 0 1.2.56 1.46 1.46 0 0 0 .51-.09 1.54 1.54 0 0 0 1-1.46V34.62c1.59 1.23 4 2.62 6.35 4.17v35.88c-11.9-8.82-25.79-11.75-27.44-12.08a1.76 1.76 0 0 1-1.12-1.49V26.3c0-.38-.04-.57.05-.59zM27.88 20a3.17 3.17 0 0 1 1.07.21l6.86 2.41c3.24 1.13 3.71 2.71 3.71 6.06v20.86l-3.88-4.71a1.49 1.49 0 0 0-1.16-.56 2.17 2.17 0 0 0-.9.19l-4.37 2.34V26.37c0-1.35.16-4.5-3.12-4.5a1 1 0 0 0-.27 0A2.23 2.23 0 0 1 27.88 20zM80 61.11c0 .79-.38 1.42-.73 1.49a74 74 0 0 0-27 12.08V38.79C64.11 28.94 79.76 25.74 80 25.7s0 .22 0 .6zm5.4 7.27a93.77 93.77 0 0 0-20.3 2.53 70.75 70.75 0 0 1 14.6-5 4.78 4.78 0 0 0 3.47-4.84V31.61c.79-.05 2-.06 2-.06a1.12 1.12 0 0 1 1.13 1v34.8a1 1 0 0 1-.92 1.03z"/></svg>