<?xml version="1.0" encoding="utf-8"?>
<!-- Generator: Adobe Illustrator 17.0.0, SVG Export Plug-In . SVG Version: 6.00 Build 0)  -->
<!DOCTYPE svg PUBLIC "-//W3C//DTD SVG 1.1//EN" "http://www.w3.org/Graphics/SVG/1.1/DTD/svg11.dtd">
<svg version="1.1" id="Layer_1" xmlns="http://www.w3.org/2000/svg" xmlns:xlink="http://www.w3.org/1999/xlink" x="0px" y="0px"
	 width="254.795px" height="83.347px" viewBox="0 0 254.795 83.347" enable-background="new 0 0 254.795 83.347"
	 xml:space="preserve">
<g>
	<path fill="#231F20" d="M254.795,72.082c0,6.22-5.042,11.264-11.261,11.264H11.263C5.044,83.347,0,78.302,0,72.082V11.263
		C0,5.044,5.044,0,11.263,0h232.27c6.219,0,11.261,5.044,11.261,11.263V72.082z"/>
	<g id="PLAY_2_">
		<defs>
			<path id="SVGID_1_" d="M55.217,36.687l-11.489-6.633c0,0-20.93-12.086-22.161-12.796c-1.231-0.71-2.456-0.28-2.456,1.204
				c0,2.473,0,25.804,0,25.804s0,25.214,0,26.328c0,1.113,0.876,1.593,1.945,0.976c1.069-0.618,22.672-13.091,22.672-13.091
				l11.488-6.633c0,0,9.748-5.628,11.044-6.375c1.296-0.749,1.171-1.775,0.078-2.364C65.245,42.519,55.217,36.687,55.217,36.687z"/>
		</defs>
		<clipPath id="SVGID_2_">
			<use xlink:href="#SVGID_1_"  overflow="visible"/>
		</clipPath>
		<linearGradient id="SVGID_3_" gradientUnits="userSpaceOnUse" x1="33.3421" y1="16.046" x2="33.3421" y2="72.4879">
			<stop  offset="0" style="stop-color:#287DB0"/>
			<stop  offset="0.2693" style="stop-color:#4A93B5"/>
			<stop  offset="0.7615" style="stop-color:#78BBBA"/>
			<stop  offset="1" style="stop-color:#8ACEBC"/>
		</linearGradient>
		<polygon clip-path="url(#SVGID_2_)" fill="url(#SVGID_3_)" points="19.111,16.046 19.111,44.267 19.111,72.488 47.573,44.267 		
			"/>
		<linearGradient id="SVGID_4_" gradientUnits="userSpaceOnUse" x1="19.1115" y1="30.054" x2="55.2173" y2="30.054">
			<stop  offset="0" style="stop-color:#53C0AC"/>
			<stop  offset="1" style="stop-color:#DEE89A"/>
		</linearGradient>
		<polygon clip-path="url(#SVGID_2_)" fill="url(#SVGID_4_)" points="55.217,36.687 43.728,30.054 19.111,15.841 19.111,16.046 
			47.573,44.267 		"/>
		<linearGradient id="SVGID_5_" gradientUnits="userSpaceOnUse" x1="37.1641" y1="44.2674" x2="37.1641" y2="72.6932">
			<stop  offset="0" style="stop-color:#EB413D"/>
			<stop  offset="0.1703" style="stop-color:#D84453"/>
			<stop  offset="0.5766" style="stop-color:#B0497A"/>
			<stop  offset="0.8624" style="stop-color:#944A92"/>
			<stop  offset="1" style="stop-color:#894B9D"/>
		</linearGradient>
		<polygon clip-path="url(#SVGID_2_)" fill="url(#SVGID_5_)" points="19.111,72.488 19.111,72.693 43.728,58.479 55.217,51.847 
			47.573,44.267 		"/>
		<linearGradient id="SVGID_6_" gradientUnits="userSpaceOnUse" x1="57.9596" y1="36.6871" x2="57.9596" y2="51.8467">
			<stop  offset="0" style="stop-color:#F58879"/>
			<stop  offset="0.1104" style="stop-color:#F68F79"/>
			<stop  offset="0.7098" style="stop-color:#FBB777"/>
			<stop  offset="1" style="stop-color:#FEC774"/>
		</linearGradient>
		<polygon clip-path="url(#SVGID_2_)" fill="url(#SVGID_6_)" points="55.217,36.687 47.573,44.267 55.217,51.847 68.346,44.267 		
			"/>
	</g>
	<g>
		<path fill="#F9F9F9" d="M198.293,55.3c-1.069,0-2.045-0.197-2.928-0.591c-0.883-0.395-1.625-1.001-2.225-1.819h-0.18
			c0.12,0.958,0.18,1.867,0.18,2.725v6.754h-2.485V38.586h2.021l0.344,2.247h0.12c0.64-0.899,1.384-1.548,2.232-1.947
			c0.848-0.399,1.822-0.599,2.92-0.599c2.177,0,3.857,0.744,5.04,2.232c1.183,1.488,1.775,3.575,1.775,6.26
			c0,2.696-0.602,4.79-1.804,6.284C202.101,54.554,200.431,55.3,198.293,55.3z M197.934,40.398c-1.677,0-2.89,0.465-3.639,1.393
			c-0.749,0.929-1.133,2.407-1.154,4.434v0.554c0,2.307,0.385,3.957,1.154,4.95c0.769,0.993,2.002,1.49,3.699,1.49
			c1.419,0,2.53-0.574,3.334-1.722c0.803-1.148,1.205-2.731,1.205-4.748c0-2.046-0.402-3.617-1.205-4.71
			C200.523,40.945,199.392,40.398,197.934,40.398z"/>
		<path fill="#F9F9F9" d="M210.864,55.001h-2.486V31.697h2.486V55.001z"/>
		<path fill="#F9F9F9" d="M225.158,55.001l-0.495-2.337h-0.12c-0.819,1.029-1.635,1.726-2.449,2.089
			c-0.813,0.365-1.83,0.547-3.047,0.547c-1.627,0-2.903-0.419-3.827-1.258c-0.924-0.839-1.386-2.031-1.386-3.579
			c0-3.314,2.651-5.052,7.952-5.212l2.787-0.09v-1.018c0-1.288-0.277-2.24-0.832-2.853c-0.554-0.615-1.441-0.921-2.658-0.921
			c-1.368,0-2.916,0.419-4.643,1.258l-0.764-1.902c0.809-0.439,1.695-0.784,2.659-1.033c0.963-0.25,1.929-0.375,2.898-0.375
			c1.957,0,3.407,0.434,4.351,1.303c0.943,0.869,1.415,2.262,1.415,4.179v11.202H225.158z M219.542,53.249
			c1.547,0,2.762-0.424,3.647-1.273c0.883-0.848,1.326-2.037,1.326-3.565v-1.482l-2.487,0.104c-1.977,0.071-3.401,0.377-4.276,0.922
			c-0.873,0.544-1.31,1.39-1.31,2.538c0,0.898,0.271,1.583,0.816,2.051C217.802,53.014,218.562,53.249,219.542,53.249z"/>
		<path fill="#F9F9F9" d="M228.443,38.586h2.665l3.595,9.361c0.789,2.137,1.278,3.679,1.469,4.628h0.12
			c0.13-0.51,0.402-1.381,0.816-2.615c0.415-1.233,1.77-5.024,4.066-11.374h2.667l-7.055,18.691
			c-0.699,1.847-1.515,3.158-2.449,3.933c-0.933,0.773-2.079,1.159-3.436,1.159c-0.759,0-1.508-0.085-2.248-0.254v-1.992
			c0.549,0.12,1.164,0.18,1.843,0.18c1.708,0,2.925-0.958,3.654-2.876l0.913-2.336L228.443,38.586z"/>
	</g>
	<path fill="#F9F9F9" d="M152.24,40.111c0.789,0.653,2.437,2.025,2.437,4.636c0,2.539-1.442,3.743-2.884,4.874
		c-0.447,0.446-0.961,0.928-0.961,1.684c0,0.754,0.515,1.166,0.894,1.475l1.237,0.959c1.51,1.271,2.882,2.439,2.882,4.809
		c0,3.227-3.125,6.488-9.029,6.488c-4.979,0-7.381-2.368-7.381-4.911c0-1.236,0.615-2.985,2.644-4.189
		c2.127-1.305,5.013-1.474,6.557-1.58c-0.482-0.617-1.03-1.27-1.03-2.332c0-0.583,0.172-0.927,0.343-1.341
		c-0.379,0.035-0.756,0.069-1.1,0.069c-3.638,0-5.698-2.713-5.698-5.389c0-1.58,0.722-3.331,2.196-4.601
		c1.958-1.614,4.292-1.889,6.148-1.889h7.071l-2.197,1.236H152.24z M149.801,55.356c-0.274-0.036-0.447-0.036-0.789-0.036
		c-0.309,0-2.165,0.07-3.606,0.552c-0.755,0.272-2.953,1.097-2.953,3.535c0,2.436,2.37,4.19,6.044,4.19
		c3.294,0,5.047-1.582,5.047-3.709C153.545,58.134,152.411,57.211,149.801,55.356z M150.798,48.832
		c0.789-0.791,0.856-1.888,0.856-2.507c0-2.471-1.476-6.316-4.324-6.316c-0.894,0-1.854,0.446-2.404,1.133
		c-0.583,0.721-0.756,1.647-0.756,2.54c0,2.3,1.339,6.111,4.293,6.111C149.321,49.794,150.246,49.382,150.798,48.832z"/>
	<path fill="#F9F9F9" d="M130.626,54.806c-5.45,0-8.363-4.251-8.363-8.091c0-4.491,3.667-8.328,8.879-8.328
		c5.037,0,8.19,3.94,8.19,8.089C139.332,50.52,136.214,54.806,130.626,54.806z M134.909,52.031c0.824-1.098,1.03-2.468,1.03-3.806
		c0-3.017-1.44-8.775-5.69-8.775c-1.131,0-2.262,0.447-3.084,1.168c-1.337,1.198-1.578,2.707-1.578,4.183
		c0,3.391,1.68,8.976,5.828,8.976C132.751,53.776,134.123,53.126,134.909,52.031z"/>
	<path fill="#F9F9F9" d="M112.047,54.806c-5.45,0-8.364-4.251-8.364-8.091c0-4.491,3.669-8.328,8.879-8.328
		c5.038,0,8.191,3.94,8.191,8.089C120.753,50.52,117.635,54.806,112.047,54.806z M116.332,52.031
		c0.823-1.098,1.029-2.468,1.029-3.806c0-3.017-1.44-8.775-5.691-8.775c-1.13,0-2.262,0.447-3.084,1.168
		c-1.337,1.198-1.577,2.707-1.577,4.183c0,3.391,1.679,8.976,5.828,8.976C114.173,53.776,115.544,53.126,116.332,52.031z"/>
	<path fill="#F9F9F9" d="M101.064,54.269l-4.929,1.137c-2,0.311-3.791,0.584-5.685,0.584c-9.513,0-13.13-6.996-13.13-12.476
		c0-6.685,5.134-12.886,13.923-12.886c1.861,0,3.652,0.275,5.271,0.723c2.585,0.724,3.791,1.619,4.549,2.137l-2.861,2.722
		l-1.205,0.274l0.862-1.379c-1.171-1.136-3.31-3.238-7.374-3.238c-5.445,0-9.547,4.137-9.547,10.167
		c0,6.477,4.687,12.577,12.199,12.577c2.208,0,3.343-0.448,4.377-0.862v-5.547l-5.203,0.275l2.756-1.483h7.306l-0.895,0.861
		c-0.243,0.208-0.276,0.277-0.345,0.551c-0.036,0.311-0.068,1.311-0.068,1.656V54.269z"/>
	<path fill="#F9F9F9" d="M163.132,53.277c-1.138-0.104-1.376-0.309-1.376-1.655v-0.379V32.117c0.007-0.074,0.012-0.15,0.018-0.222
		c0.139-1.205,0.483-1.412,1.553-2.033h-4.93l-2.586,1.241h2.635v0.016l-0.002-0.013v20.137v1.138c0,0.688-0.136,0.792-0.93,1.825
		h6.1l1.275-0.756C164.305,53.379,163.719,53.346,163.132,53.277z"/>
	<path fill="#F9F9F9" d="M177.155,53.594c-0.375,0.206-0.752,0.447-1.127,0.616c-1.132,0.513-2.295,0.65-3.323,0.65
		c-1.093,0-2.805-0.071-4.552-1.335c-2.428-1.712-3.489-4.656-3.489-7.222c0-5.304,4.312-7.905,7.837-7.905
		c1.232,0,2.5,0.307,3.527,0.959c1.709,1.127,2.155,2.599,2.392,3.386l-8.04,3.253l-2.636,0.205c0.854,4.346,3.797,6.877,7.05,6.877
		c1.745,0,3.012-0.615,4.175-1.196L177.155,53.594z M173.939,43.394c0.649-0.239,0.991-0.445,0.991-0.923
		c0-1.368-1.539-2.943-3.389-2.943c-1.37,0-3.936,1.061-3.936,4.757c0,0.582,0.069,1.198,0.104,1.816L173.939,43.394z"/>
	<g>
		<path fill="#F9F9FA" d="M84.165,23.919h-1.712c0-0.235-0.162-0.902-0.487-2.001h-2.472c-0.335,1.081-0.503,1.748-0.503,2.001
			h-1.611c0-0.139,0.416-1.281,1.25-3.425c0.833-2.144,1.25-3.325,1.25-3.543h2.023c0,0.203,0.377,1.367,1.132,3.491
			C83.788,22.567,84.165,23.726,84.165,23.919z M81.693,20.895c-0.61-1.841-0.915-2.836-0.915-2.986h-0.086
			c0,0.139-0.316,1.134-0.947,2.986H81.693z"/>
		<path fill="#F9F9FA" d="M91.065,23.919h-1.322c0-0.146-0.491-0.918-1.472-2.317c-1.027-1.474-1.613-2.481-1.755-3.023h-0.086
			c0.089,0.781,0.134,1.488,0.134,2.119c0,0.881,0.025,1.955,0.075,3.221h-1.316c0.054-1.106,0.08-2.32,0.08-3.644
			c0-1.302-0.027-2.41-0.08-3.323h1.589c0,0.189,0.441,0.944,1.322,2.264c0.938,1.402,1.477,2.353,1.616,2.852h0.08
			c-0.086-0.795-0.128-1.509-0.128-2.141c0-0.967-0.025-1.959-0.075-2.975h1.338c-0.05,0.885-0.075,1.993-0.075,3.323
			C90.99,21.616,91.015,22.83,91.065,23.919z"/>
		<path fill="#F9F9FA" d="M98.821,20.194c0,1.013-0.325,1.898-0.974,2.654c-0.649,0.756-1.559,1.134-2.729,1.134
			c-0.528,0-1.256-0.021-2.183-0.064c0.046-1.078,0.07-2.292,0.07-3.644c0-1.298-0.023-2.406-0.07-3.323h0.936
			c0.153,0,0.382-0.005,0.685-0.016c0.303-0.011,0.501-0.016,0.594-0.016c1.288,0,2.222,0.321,2.801,0.963
			C98.531,18.525,98.821,19.295,98.821,20.194z M97.36,20.424c0-0.685-0.2-1.262-0.599-1.731c-0.4-0.469-1.01-0.703-1.83-0.703
			c-0.153,0-0.364,0.016-0.631,0.048c0.036,0.714,0.054,1.459,0.054,2.237c0,0.853,0.018,1.698,0.053,2.536
			c0.232,0.046,0.464,0.07,0.696,0.07c0.767,0,1.335-0.238,1.704-0.715C97.176,21.69,97.36,21.109,97.36,20.424z"/>
		<path fill="#F9F9FA" d="M105.973,23.919h-1.584c-0.414-1.263-0.731-2.042-0.953-2.339c-0.221-0.296-0.578-0.444-1.07-0.444
			c-0.207,0-0.405,0.002-0.594,0.005c0,0.917,0.016,1.843,0.048,2.777h-1.488c0.046-1.078,0.07-2.292,0.07-3.644
			c0-1.298-0.023-2.406-0.07-3.323h0.926c0.107,0,0.331-0.005,0.672-0.016c0.341-0.011,0.656-0.016,0.944-0.016
			c1.637,0,2.456,0.56,2.456,1.68c0,0.888-0.468,1.507-1.402,1.857v0.08c0.36,0.1,0.676,0.381,0.947,0.843
			C105.147,21.841,105.513,22.688,105.973,23.919z M103.966,18.995c0-0.71-0.457-1.065-1.37-1.065c-0.335,0-0.631,0.025-0.888,0.075
			c0.039,0.553,0.059,1.274,0.059,2.162c0.196,0.007,0.362,0.011,0.498,0.011C103.399,20.178,103.966,19.784,103.966,18.995z"/>
		<path fill="#F9F9FA" d="M113.644,20.307c0,1.095-0.335,2.003-1.006,2.724c-0.671,0.72-1.5,1.081-2.488,1.081
			c-0.942,0-1.73-0.331-2.365-0.993c-0.635-0.662-0.953-1.503-0.953-2.523c0-1.095,0.335-2.003,1.006-2.724
			c0.671-0.72,1.5-1.081,2.488-1.081c0.942,0,1.73,0.33,2.365,0.99C113.326,18.441,113.644,19.282,113.644,20.307z M112.167,20.462
			c0-0.746-0.191-1.35-0.573-1.814c-0.382-0.464-0.853-0.696-1.413-0.696c-0.521,0-0.963,0.234-1.327,0.701
			c-0.364,0.467-0.546,1.058-0.546,1.771c0,0.742,0.192,1.346,0.575,1.811c0.383,0.466,0.854,0.699,1.41,0.699
			c0.521,0,0.963-0.234,1.327-0.704C111.985,21.761,112.167,21.171,112.167,20.462z"/>
		<path fill="#F9F9FA" d="M116.669,23.919h-1.514c0.046-1.106,0.07-2.32,0.07-3.644c0-1.302-0.023-2.41-0.07-3.323h1.514
			c-0.046,0.899-0.07,2.007-0.07,3.323C116.6,21.619,116.623,22.834,116.669,23.919z"/>
		<path fill="#F9F9FA" d="M124.426,20.194c0,1.013-0.325,1.898-0.974,2.654c-0.649,0.756-1.559,1.134-2.729,1.134
			c-0.528,0-1.256-0.021-2.183-0.064c0.046-1.078,0.07-2.292,0.07-3.644c0-1.298-0.023-2.406-0.07-3.323h0.936
			c0.153,0,0.382-0.005,0.685-0.016c0.303-0.011,0.501-0.016,0.594-0.016c1.288,0,2.222,0.321,2.801,0.963
			C124.136,18.525,124.426,19.295,124.426,20.194z M122.965,20.424c0-0.685-0.2-1.262-0.599-1.731c-0.4-0.469-1.01-0.703-1.83-0.703
			c-0.153,0-0.364,0.016-0.631,0.048c0.036,0.714,0.054,1.459,0.054,2.237c0,0.853,0.018,1.698,0.054,2.536
			c0.232,0.046,0.464,0.07,0.696,0.07c0.767,0,1.335-0.238,1.704-0.715C122.78,21.69,122.965,21.109,122.965,20.424z"/>
		<path fill="#F9F9FA" d="M134.715,23.919h-1.712c0-0.235-0.162-0.902-0.487-2.001h-2.472c-0.335,1.081-0.503,1.748-0.503,2.001
			h-1.61c0-0.139,0.416-1.281,1.249-3.425c0.833-2.144,1.249-3.325,1.249-3.543h2.023c0,0.203,0.378,1.367,1.132,3.491
			C134.338,22.567,134.715,23.726,134.715,23.919z M132.243,20.895c-0.61-1.841-0.916-2.836-0.916-2.986h-0.086
			c0,0.139-0.315,1.134-0.947,2.986H132.243z"/>
		<path fill="#F9F9FA" d="M140.957,18.776c0,0.853-0.317,1.482-0.95,1.889c-0.633,0.407-1.41,0.61-2.33,0.61
			c-0.168,0-0.287-0.003-0.359-0.011c0,0.671,0.019,1.555,0.059,2.654h-1.504c0.046-1.031,0.07-2.246,0.07-3.644
			c0-1.284-0.023-2.392-0.07-3.323h0.931c0.132,0,0.385-0.005,0.76-0.016c0.375-0.011,0.699-0.016,0.974-0.016
			c0.678,0,1.25,0.153,1.718,0.46S140.957,18.152,140.957,18.776z M139.577,19.07c0-0.763-0.506-1.145-1.52-1.145
			c-0.253,0-0.521,0.027-0.803,0.08c0.039,0.674,0.059,1.438,0.059,2.29c0.089,0.007,0.193,0.011,0.31,0.011
			C138.926,20.307,139.577,19.894,139.577,19.07z"/>
		<path fill="#F9F9FA" d="M147.375,18.776c0,0.853-0.317,1.482-0.95,1.889c-0.633,0.407-1.41,0.61-2.331,0.61
			c-0.168,0-0.287-0.003-0.359-0.011c0,0.671,0.019,1.555,0.059,2.654h-1.504c0.046-1.031,0.07-2.246,0.07-3.644
			c0-1.284-0.023-2.392-0.07-3.323h0.931c0.132,0,0.385-0.005,0.76-0.016c0.375-0.011,0.699-0.016,0.974-0.016
			c0.678,0,1.25,0.153,1.718,0.46C147.142,17.686,147.375,18.152,147.375,18.776z M145.995,19.07c0-0.763-0.506-1.145-1.52-1.145
			c-0.253,0-0.521,0.027-0.803,0.08c0.039,0.674,0.059,1.438,0.059,2.29c0.089,0.007,0.193,0.011,0.31,0.011
			C145.344,20.307,145.995,19.894,145.995,19.07z"/>
		<path fill="#F9F9FA" d="M157.869,20.307c0,1.095-0.335,2.003-1.006,2.724c-0.671,0.72-1.5,1.081-2.488,1.081
			c-0.942,0-1.73-0.331-2.365-0.993c-0.635-0.662-0.953-1.503-0.953-2.523c0-1.095,0.335-2.003,1.006-2.724
			c0.671-0.72,1.5-1.081,2.488-1.081c0.942,0,1.73,0.33,2.365,0.99C157.551,18.441,157.869,19.282,157.869,20.307z M156.392,20.462
			c0-0.746-0.191-1.35-0.573-1.814c-0.382-0.464-0.853-0.696-1.413-0.696c-0.521,0-0.963,0.234-1.327,0.701
			c-0.364,0.467-0.546,1.058-0.546,1.771c0,0.742,0.192,1.346,0.576,1.811c0.383,0.466,0.853,0.699,1.41,0.699
			c0.521,0,0.963-0.234,1.327-0.704C156.21,21.761,156.392,21.171,156.392,20.462z"/>
		<path fill="#F9F9FA" d="M165.122,23.919H163.8c0-0.146-0.49-0.918-1.472-2.317c-1.027-1.474-1.613-2.481-1.755-3.023h-0.086
			c0.089,0.781,0.134,1.488,0.134,2.119c0,0.881,0.025,1.955,0.075,3.221h-1.316c0.053-1.106,0.08-2.32,0.08-3.644
			c0-1.302-0.027-2.41-0.08-3.323h1.589c0,0.189,0.441,0.944,1.322,2.264c0.938,1.402,1.477,2.353,1.616,2.852h0.08
			c-0.086-0.795-0.128-1.509-0.128-2.141c0-0.967-0.025-1.959-0.075-2.975h1.338c-0.05,0.885-0.075,1.993-0.075,3.323
			C165.047,21.616,165.072,22.83,165.122,23.919z"/>
	</g>
</g>
</svg>
