<?xml version="1.0" encoding="utf-8"?>
<!-- Generator: Adobe Illustrator 17.0.0, SVG Export Plug-In . SVG Version: 6.00 Build 0)  -->
<!DOCTYPE svg PUBLIC "-//W3C//DTD SVG 1.1//EN" "http://www.w3.org/Graphics/SVG/1.1/DTD/svg11.dtd">
<svg version="1.1" id="Layer_1" xmlns="http://www.w3.org/2000/svg" xmlns:xlink="http://www.w3.org/1999/xlink" x="0px" y="0px"
	 width="254.795px" height="83.347px" viewBox="0 0 254.795 83.347" enable-background="new 0 0 254.795 83.347"
	 xml:space="preserve">
<g>
	<path fill="#231F20" d="M254.795,72.082c0,6.22-5.042,11.264-11.261,11.264H11.263C5.044,83.347,0,78.302,0,72.082V11.263
		C0,5.044,5.044,0,11.263,0h232.27c6.219,0,11.261,5.044,11.261,11.263V72.082z"/>
	<path fill="#FFFFFF" d="M44.005,14.254H23.25c-2.487,0-4.504,2.015-4.504,4.504v45.981c0,2.489,2.017,4.506,4.504,4.506h20.755
		c2.489,0,4.506-2.017,4.506-4.506V18.758C48.511,16.269,46.494,14.254,44.005,14.254z M33.628,65.937
		c-1.656,0-2.999-1.343-2.999-3.001c0-1.656,1.343-2.999,2.999-2.999c1.658,0,3.001,1.343,3.001,2.999
		C36.629,64.594,35.286,65.937,33.628,65.937z M44.973,58.475H22.283V24.559h22.689V58.475z"/>
	<g>
		<path fill="#FFFFFF" d="M65.509,22.449l-1.261,3.82h-1.622l4.127-12.148h1.893l4.145,12.148h-1.676l-1.297-3.82H65.509z
			 M69.491,21.224l-1.207-3.497c-0.253-0.794-0.433-1.514-0.613-2.216h-0.053c-0.162,0.702-0.361,1.46-0.595,2.198l-1.189,3.515
			H69.491z"/>
		<path fill="#FFFFFF" d="M74.412,17.546l1.712,4.885c0.289,0.81,0.523,1.532,0.704,2.252h0.054c0.199-0.72,0.45-1.442,0.738-2.252
			l1.695-4.885h1.658l-3.426,8.723h-1.514l-3.314-8.723H74.412z"/>
		<path fill="#FFFFFF" d="M88.272,24.18c0,0.756,0.037,1.494,0.127,2.089h-1.424L86.83,25.17h-0.053
			c-0.468,0.686-1.424,1.297-2.668,1.297c-1.766,0-2.667-1.243-2.667-2.504c0-2.11,1.874-3.263,5.244-3.245v-0.18
			c0-0.72-0.199-2.037-1.981-2.017c-0.83,0-1.676,0.233-2.29,0.647l-0.362-1.065c0.722-0.449,1.785-0.755,2.884-0.755
			c2.687,0,3.334,1.82,3.334,3.569V24.18z M86.722,21.818c-1.731-0.036-3.693,0.27-3.693,1.965c0,1.044,0.684,1.514,1.476,1.514
			c1.155,0,1.892-0.722,2.146-1.46c0.054-0.163,0.072-0.343,0.072-0.505V21.818z"/>
		<path fill="#FFFFFF" d="M91.478,15.942c-0.593,0-0.99-0.468-0.99-1.027c0-0.559,0.415-1.008,1.027-1.008
			c0.614,0,1.01,0.45,1.01,1.008c0,0.559-0.396,1.027-1.026,1.027H91.478z M90.723,26.269v-8.723h1.586v8.723H90.723z"/>
		<path fill="#FFFFFF" d="M94.849,13.474h1.586v12.795h-1.586V13.474z"/>
		<path fill="#FFFFFF" d="M105.122,24.18c0,0.756,0.036,1.494,0.126,2.089h-1.425l-0.144-1.099h-0.053
			c-0.469,0.686-1.424,1.297-2.669,1.297c-1.765,0-2.667-1.243-2.667-2.504c0-2.11,1.875-3.263,5.246-3.245v-0.18
			c0-0.72-0.199-2.037-1.984-2.017c-0.828,0-1.676,0.233-2.287,0.647l-0.362-1.065c0.721-0.449,1.786-0.755,2.884-0.755
			c2.685,0,3.334,1.82,3.334,3.569V24.18z M103.572,21.818c-1.73-0.036-3.696,0.27-3.696,1.965c0,1.044,0.685,1.514,1.478,1.514
			c1.154,0,1.893-0.722,2.145-1.46c0.055-0.163,0.072-0.343,0.072-0.505V21.818z"/>
		<path fill="#FFFFFF" d="M107.571,13.474h1.586v5.46h0.037c0.558-0.972,1.566-1.586,2.972-1.586c2.164,0,3.678,1.802,3.678,4.434
			c0,3.136-1.983,4.686-3.929,4.686c-1.261,0-2.254-0.487-2.919-1.64h-0.038l-0.09,1.442h-1.367c0.054-0.596,0.07-1.477,0.07-2.252
			V13.474z M109.157,22.774c0,0.197,0.018,0.395,0.056,0.576c0.305,1.098,1.243,1.856,2.378,1.856c1.677,0,2.649-1.351,2.649-3.353
			c0-1.766-0.901-3.26-2.594-3.26c-1.081,0-2.092,0.756-2.398,1.945c-0.053,0.199-0.09,0.415-0.09,0.667V22.774z"/>
		<path fill="#FFFFFF" d="M117.736,13.474h1.585v12.795h-1.585V13.474z"/>
		<path fill="#FFFFFF" d="M122.763,22.178c0.036,2.145,1.387,3.028,2.974,3.028c1.137,0,1.838-0.199,2.416-0.433l0.287,1.117
			c-0.557,0.252-1.532,0.559-2.919,0.559c-2.667,0-4.289-1.784-4.289-4.397c0-2.649,1.567-4.722,4.111-4.722
			c2.845,0,3.585,2.506,3.585,4.108c0,0.325-0.018,0.577-0.054,0.758L122.763,22.178z M127.395,21.044
			c0.018-0.992-0.415-2.579-2.182-2.579c-1.619,0-2.306,1.478-2.432,2.579H127.395z"/>
		<path fill="#FFFFFF" d="M138.081,26.468c-2.343,0-4.182-1.73-4.182-4.488c0-2.92,1.929-4.632,4.326-4.632
			c2.504,0,4.198,1.82,4.198,4.469c0,3.245-2.253,4.65-4.325,4.65H138.081z M138.135,25.279c1.514,0,2.648-1.424,2.648-3.407
			c0-1.478-0.738-3.335-2.612-3.335c-1.857,0-2.667,1.73-2.667,3.389c0,1.911,1.081,3.353,2.613,3.353H138.135z"/>
		<path fill="#FFFFFF" d="M144.335,19.909c0-0.92-0.02-1.64-0.075-2.362h1.407l0.09,1.423h0.036
			c0.433-0.809,1.442-1.621,2.883-1.621c1.207,0,3.085,0.721,3.085,3.713v5.208h-1.589V21.24c0-1.403-0.522-2.594-2.019-2.594
			c-1.027,0-1.837,0.739-2.126,1.622c-0.072,0.198-0.108,0.487-0.108,0.74v5.262h-1.584V19.909z"/>
		<path fill="#FFFFFF" d="M159.886,15.457v2.089h2.269v1.207h-2.269v4.704c0,1.081,0.306,1.694,1.188,1.694
			c0.434,0,0.687-0.036,0.921-0.108l0.07,1.207c-0.305,0.108-0.792,0.216-1.404,0.216c-0.741,0-1.336-0.253-1.714-0.666
			c-0.431-0.488-0.612-1.263-0.612-2.29v-4.758h-1.35v-1.207h1.35v-1.604L159.886,15.457z"/>
		<path fill="#FFFFFF" d="M163.85,13.474h1.586v5.442h0.035c0.252-0.451,0.649-0.864,1.136-1.117
			c0.469-0.289,1.026-0.451,1.623-0.451c1.17,0,3.043,0.721,3.043,3.731v5.19h-1.584V21.26c0-1.423-0.523-2.597-2.02-2.597
			c-1.027,0-1.819,0.722-2.125,1.586c-0.09,0.216-0.109,0.451-0.109,0.758v5.262h-1.586V13.474z"/>
		<path fill="#FFFFFF" d="M174.662,22.178c0.036,2.145,1.387,3.028,2.973,3.028c1.135,0,1.839-0.199,2.417-0.433l0.287,1.117
			c-0.559,0.252-1.532,0.559-2.921,0.559c-2.666,0-4.289-1.784-4.289-4.397c0-2.649,1.568-4.722,4.11-4.722
			c2.847,0,3.587,2.506,3.587,4.108c0,0.325-0.018,0.577-0.054,0.758L174.662,22.178z M179.295,21.044
			c0.016-0.992-0.415-2.579-2.181-2.579c-1.621,0-2.309,1.478-2.433,2.579H179.295z"/>
		<path fill="#FFFFFF" d="M187.188,15.942c-0.596,0-0.993-0.468-0.993-1.027c0-0.559,0.414-1.008,1.028-1.008
			c0.612,0,1.009,0.45,1.009,1.008c0,0.559-0.397,1.027-1.029,1.027H187.188z M186.429,26.269v-8.723h1.586v8.723H186.429z"/>
		<path fill="#FFFFFF" d="M190.61,14.284c0.756-0.143,1.748-0.252,3.01-0.252c1.549,0,2.685,0.36,3.404,1.01
			c0.667,0.576,1.083,1.459,1.083,2.54c0,1.099-0.325,1.965-0.956,2.594c-0.828,0.884-2.18,1.334-3.712,1.334
			c-0.467,0-0.9-0.018-1.261-0.107v4.865h-1.568V14.284z M192.178,20.123c0.341,0.091,0.794,0.127,1.298,0.127
			c1.91,0,3.045-0.936,3.045-2.577c0-1.622-1.135-2.396-2.865-2.396c-0.684,0-1.206,0.071-1.478,0.126V20.123z"/>
		<path fill="#FFFFFF" d="M199.964,13.474h1.587v5.442h0.036c0.252-0.451,0.649-0.864,1.134-1.117
			c0.47-0.289,1.029-0.451,1.623-0.451c1.171,0,3.045,0.721,3.045,3.731v5.19h-1.585V21.26c0-1.423-0.523-2.597-2.02-2.597
			c-1.025,0-1.818,0.722-2.126,1.586c-0.09,0.216-0.108,0.451-0.108,0.758v5.262h-1.587V13.474z"/>
		<path fill="#FFFFFF" d="M213.427,26.468c-2.343,0-4.182-1.73-4.182-4.488c0-2.92,1.929-4.632,4.327-4.632
			c2.504,0,4.197,1.82,4.197,4.469c0,3.245-2.252,4.65-4.324,4.65H213.427z M213.482,25.279c1.511,0,2.648-1.424,2.648-3.407
			c0-1.478-0.738-3.335-2.614-3.335c-1.855,0-2.668,1.73-2.668,3.389c0,1.911,1.081,3.353,2.613,3.353H213.482z"/>
		<path fill="#FFFFFF" d="M219.68,19.909c0-0.92-0.018-1.64-0.072-2.362h1.406l0.09,1.423h0.037
			c0.433-0.809,1.442-1.621,2.883-1.621c1.207,0,3.08,0.721,3.08,3.713v5.208h-1.584V21.24c0-1.403-0.523-2.594-2.02-2.594
			c-1.026,0-1.837,0.739-2.125,1.622c-0.073,0.198-0.111,0.487-0.111,0.74v5.262h-1.584V19.909z"/>
		<path fill="#FFFFFF" d="M230.492,22.178c0.036,2.145,1.388,3.028,2.974,3.028c1.134,0,1.838-0.199,2.414-0.433l0.289,1.117
			c-0.56,0.252-1.532,0.559-2.92,0.559c-2.667,0-4.29-1.784-4.29-4.397c0-2.649,1.568-4.722,4.109-4.722
			c2.848,0,3.587,2.506,3.587,4.108c0,0.325-0.017,0.577-0.054,0.758L230.492,22.178z M235.125,21.044
			c0.018-0.992-0.415-2.579-2.181-2.579c-1.623,0-2.307,1.478-2.433,2.579H235.125z"/>
	</g>
	<g>
		<path fill="#FFFFFF" d="M72.976,34.498L62.29,65.953h4.893l3.191-9.659H80.72l3.281,9.659h5.029L78.297,34.498H72.976z
			 M75.511,39.669c0.361,1.404,0.75,2.862,1.25,4.437l2.88,8.34h-8.196l2.84-8.394C74.718,42.691,75.128,41.221,75.511,39.669z"/>
		<path fill="#FFFFFF" d="M102.858,42.652c-3.241,0-5.838,1.251-7.566,3.629l-0.189-3.129h-4.353l0.026,0.4
			c0.127,1.949,0.182,4.094,0.182,7.175v24.245h4.758V63.657c1.477,1.767,3.835,2.795,6.506,2.795c2.782,0,5.344-1.09,7.212-3.066
			c2.084-2.203,3.184-5.37,3.184-9.154c0-3.344-0.955-6.234-2.766-8.358C108.079,43.796,105.597,42.652,102.858,42.652z
			 M101.672,46.591c4.242,0,6.141,3.93,6.141,7.824c0,5.023-2.422,8.144-6.321,8.144c-2.662,0-4.965-1.812-5.606-4.416
			c-0.11-0.404-0.17-0.938-0.17-1.541v-3.827c0-0.346,0.078-0.767,0.152-1.174c0.023-0.13,0.049-0.26,0.068-0.387
			C96.645,48.491,99.001,46.591,101.672,46.591z"/>
		<path fill="#FFFFFF" d="M127.364,42.652c-3.241,0-5.837,1.251-7.567,3.629l-0.189-3.129h-4.352l0.025,0.4
			c0.128,1.951,0.183,4.094,0.183,7.175v24.245h4.76V63.657c1.475,1.767,3.832,2.795,6.503,2.795c2.783,0,5.345-1.09,7.215-3.066
			c2.082-2.203,3.183-5.37,3.183-9.154c0-3.344-0.956-6.234-2.766-8.358C132.586,43.796,130.103,42.652,127.364,42.652z
			 M126.18,46.591c4.241,0,6.139,3.93,6.139,7.824c0,5.023-2.424,8.144-6.322,8.144c-2.661,0-4.966-1.812-5.607-4.416
			c-0.11-0.404-0.167-0.938-0.167-1.541v-3.827c0-0.348,0.075-0.771,0.152-1.178c0.023-0.128,0.047-0.256,0.069-0.383
			C121.152,48.491,123.508,46.591,126.18,46.591z"/>
		<path fill="#FFFFFF" d="M158.066,47.826c-4.442-1.72-5.865-3.073-5.865-5.572c0-2.105,1.672-4.227,5.41-4.227
			c3.083,0,5.056,1.072,5.587,1.402l0.404,0.249l1.343-3.972l-0.266-0.155c-0.797-0.468-3.069-1.555-6.93-1.555
			c-6.069,0-10.307,3.583-10.307,8.712c0,4.136,2.654,7.027,8.354,9.098c4.038,1.51,5.541,3.057,5.541,5.707
			c0,3.001-2.319,4.863-6.049,4.863c-2.429,0-4.93-0.709-6.859-1.945l-0.413-0.265l-1.277,4.064l0.234,0.156
			c1.796,1.2,5.178,2.068,8.042,2.068c8.18,0,11.08-4.987,11.08-9.259C166.094,52.792,163.768,50.075,158.066,47.826z"/>
		<path fill="#FFFFFF" d="M174.66,37.733l-4.668,1.465v3.954h-3.416v3.804h3.416v11.651c0,2.817,0.539,4.791,1.648,6.038
			c1.063,1.166,2.699,1.808,4.604,1.808c1.8,0,3.077-0.355,3.679-0.568l0.267-0.094l-0.228-3.811l-0.456,0.141
			c-0.601,0.184-1.22,0.256-2.213,0.256c-1.845,0-2.632-1.168-2.632-3.906V46.956h5.74v-3.804h-5.74V37.733z"/>
		<path fill="#FFFFFF" d="M192.195,42.652c-6.659,0-11.309,4.969-11.309,12.083c0,6.9,4.5,11.718,10.944,11.718h0.045
			c5.448,0,11.309-3.795,11.309-12.128c0-3.389-1.048-6.299-3.033-8.418C198.154,43.778,195.403,42.652,192.195,42.652z
			 M192.058,46.409c4.282,0,6.23,4.173,6.23,8.053c0,4.771-2.659,8.234-6.32,8.234h-0.046c-3.61,0-6.23-3.405-6.23-8.096
			C185.692,50.523,187.66,46.409,192.058,46.409z"/>
		<path fill="#FFFFFF" d="M217.76,42.872l-0.285-0.072c-0.419-0.105-0.762-0.148-1.184-0.148c-2.49,0-4.724,1.466-5.967,3.831
			l-0.14-3.331h-4.27l0.027,0.4c0.126,1.884,0.18,3.999,0.18,6.853l-0.045,15.547h4.76V53.823c0-0.66,0.046-1.285,0.13-1.844
			c0.538-2.914,2.503-4.797,5.008-4.797c0.487,0,0.871,0.04,1.278,0.08l0.509,0.053V42.872z"/>
		<path fill="#FFFFFF" d="M228.461,42.607c-6.336,0-10.762,5.062-10.762,12.31c0,6.98,4.403,11.491,11.216,11.491
			c3.583,0,6.076-0.787,7.535-1.445l0.286-0.129l-0.914-3.546l-0.398,0.16c-1.297,0.527-3.02,1.066-5.963,1.066
			c-2.068,0-6.835-0.682-7.128-6.9l15.362,0.046l0.061-0.304c0.097-0.484,0.144-1.135,0.144-1.987
			C237.901,48.404,235.429,42.607,228.461,42.607z M228.143,46.227c1.45,0,2.626,0.449,3.494,1.333
			c1.369,1.393,1.609,3.445,1.638,4.43h-10.852C222.863,49.242,224.583,46.227,228.143,46.227z"/>
	</g>
</g>
</svg>
