<?xml version="1.0" encoding="utf-8"?>
<!-- Generator: Adobe Illustrator 17.0.0, SVG Export Plug-In . SVG Version: 6.00 Build 0)  -->
<!DOCTYPE svg PUBLIC "-//W3C//DTD SVG 1.1//EN" "http://www.w3.org/Graphics/SVG/1.1/DTD/svg11.dtd">
<svg version="1.1" id="Layer_1" xmlns="http://www.w3.org/2000/svg" xmlns:xlink="http://www.w3.org/1999/xlink" x="0px" y="0px"
	 width="254.795px" height="83.346px" viewBox="0 0 254.795 83.346" enable-background="new 0 0 254.795 83.346"
	 xml:space="preserve">
<g>
	<polygon fill="#231F20" points="0,0 0,8.583 0,74.763 0,83.346 254.795,83.346 254.795,74.763 254.795,8.583 254.795,0 	"/>
	<g>
		<g id="bag_3_">
			<g id="handles_3_">
				<g>
					<path fill="#FFFFFF" d="M31.966,22.732c-1.911,0.671-3.309,1.245-3.309,4.9v1.754l1.145-0.229v-1.516
						c-0.027-2.478,0.616-2.997,2.288-3.719C32.081,23.455,32.04,23.057,31.966,22.732z"/>
				</g>
				<g>
					<path fill="#FFFFFF" d="M35.297,21.949c0.078,0.355,0.136,0.74,0.177,1.154c2.992-0.43,2.937,0.805,2.937,3.383v0.95
						l1.133-0.232v-0.718C39.545,22.481,38.919,21.409,35.297,21.949z"/>
				</g>
				<g>
					<path fill="#FFFFFF" d="M23.499,30.42v-5.266c-0.037-3.264,1.648-4.265,4.757-4.99c4.686-1.099,4.984,1.92,4.984,3.841v4.464
						l1.148-0.229v-4.136c-0.012-3.636-1.146-6.358-6.358-5.177c-2.808,0.637-5.679,1.352-5.679,6.118v5.603L23.499,30.42z"/>
				</g>
			</g>
			<g>
				<path fill="#FFFFFF" d="M45.278,27.445l-31.522,6.301v22.928l31.522,6.306l6.302-2.294V29.738L45.278,27.445z M27.597,51.93
					l-7.062-0.986v-5.91h7.062V51.93z M27.597,44.507h-7.062V38.92l7.062-0.986V44.507z M37.221,53.276l-9.101-1.293v-6.949h9.101
					V53.276z M37.221,44.507H28.12v-6.628l9.101-1.29V44.507z"/>
			</g>
		</g>
	</g>
	<g>
		<path fill="#FFFFFF" d="M64.545,25.419c0.96-0.144,2.101-0.253,3.35-0.253c2.264,0,3.876,0.526,4.944,1.521
			c1.087,0.996,1.72,2.409,1.72,4.383c0,1.992-0.616,3.621-1.757,4.745c-1.141,1.141-3.024,1.757-5.397,1.757
			c-1.123,0-2.065-0.055-2.861-0.145V25.419z M66.121,36.213c0.398,0.072,0.978,0.09,1.594,0.09c3.368,0,5.198-1.884,5.198-5.18
			c0.018-2.879-1.612-4.708-4.944-4.708c-0.815,0-1.43,0.072-1.847,0.163V36.213z"/>
		<path fill="#FFFFFF" d="M84.377,33.008c0,3.241-2.246,4.654-4.365,4.654c-2.372,0-4.201-1.739-4.201-4.51
			c0-2.933,1.92-4.653,4.346-4.653C82.674,28.499,84.377,30.328,84.377,33.008z M77.423,33.098c0,1.919,1.105,3.368,2.662,3.368
			c1.521,0,2.662-1.43,2.662-3.405c0-1.484-0.742-3.368-2.626-3.368S77.423,31.432,77.423,33.098z"/>
		<path fill="#FFFFFF" d="M86.61,28.697l1.159,4.455c0.253,0.978,0.489,1.884,0.652,2.789h0.054c0.199-0.886,0.489-1.829,0.779-2.77
			l1.43-4.473h1.34l1.358,4.383c0.326,1.05,0.58,1.974,0.779,2.861h0.054c0.145-0.886,0.38-1.811,0.67-2.843l1.25-4.401h1.576
			l-2.825,8.766h-1.449l-1.34-4.184c-0.308-0.978-0.561-1.847-0.779-2.879h-0.036c-0.218,1.05-0.489,1.956-0.797,2.898l-1.412,4.165
			h-1.449l-2.644-8.766H86.61z"/>
		<path fill="#FFFFFF" d="M99.135,31.07c0-0.906-0.018-1.648-0.072-2.373h1.413l0.09,1.449h0.036
			c0.435-0.833,1.449-1.647,2.898-1.647c1.213,0,3.097,0.724,3.097,3.73v5.234h-1.594V32.41c0-1.412-0.525-2.589-2.028-2.589
			c-1.05,0-1.865,0.742-2.137,1.63c-0.072,0.199-0.109,0.471-0.109,0.742v5.271h-1.594V31.07z"/>
		<path fill="#FFFFFF" d="M108.886,24.605h1.594v12.858h-1.594V24.605z"/>
		<path fill="#FFFFFF" d="M120.875,33.008c0,3.241-2.246,4.654-4.364,4.654c-2.372,0-4.201-1.739-4.201-4.51
			c0-2.933,1.919-4.653,4.346-4.653C119.173,28.499,120.875,30.328,120.875,33.008z M113.921,33.098
			c0,1.919,1.105,3.368,2.662,3.368c1.521,0,2.662-1.43,2.662-3.405c0-1.484-0.742-3.368-2.626-3.368S113.921,31.432,113.921,33.098
			z"/>
		<path fill="#FFFFFF" d="M127.582,37.463l-0.127-1.105h-0.054c-0.489,0.688-1.431,1.304-2.68,1.304c-1.775,0-2.68-1.25-2.68-2.517
			c0-2.119,1.883-3.278,5.27-3.261v-0.181c0-0.724-0.199-2.028-1.992-2.028c-0.815,0-1.666,0.254-2.282,0.653l-0.362-1.051
			c0.724-0.471,1.775-0.778,2.879-0.778c2.68,0,3.332,1.829,3.332,3.585v3.278c0,0.762,0.036,1.504,0.145,2.102H127.582z
			 M127.346,32.989c-1.739-0.037-3.712,0.271-3.712,1.974c0,1.032,0.688,1.521,1.503,1.521c1.141,0,1.865-0.725,2.119-1.467
			c0.054-0.163,0.09-0.344,0.09-0.507V32.989z"/>
		<path fill="#FFFFFF" d="M138.815,24.605v10.594c0,0.779,0.018,1.666,0.072,2.264h-1.431l-0.072-1.522h-0.036
			c-0.489,0.978-1.557,1.721-2.988,1.721c-2.119,0-3.749-1.793-3.749-4.455c-0.018-2.916,1.793-4.708,3.93-4.708
			c1.34,0,2.246,0.633,2.644,1.34h0.036v-5.234H138.815z M137.222,32.266c0-0.199-0.018-0.472-0.072-0.671
			c-0.236-1.014-1.105-1.846-2.3-1.846c-1.648,0-2.626,1.449-2.626,3.387c0,1.774,0.869,3.241,2.59,3.241
			c1.068,0,2.046-0.707,2.336-1.901c0.054-0.218,0.072-0.435,0.072-0.688V32.266z"/>
		<path fill="#FFFFFF" d="M145.459,37.463v-7.552h-1.231v-1.214h1.231v-0.416c0-1.231,0.272-2.355,1.014-3.061
			c0.598-0.58,1.394-0.814,2.137-0.814c0.561,0,1.05,0.127,1.358,0.253l-0.218,1.232c-0.235-0.109-0.561-0.199-1.014-0.199
			c-1.358,0-1.702,1.195-1.702,2.535v0.471h2.119v1.214h-2.119v7.552H145.459z"/>
		<path fill="#FFFFFF" d="M150.473,31.432c0-1.032-0.018-1.919-0.073-2.735h1.394l0.054,1.721h0.073
			c0.398-1.177,1.358-1.919,2.426-1.919c0.182,0,0.308,0.017,0.453,0.054v1.503c-0.163-0.036-0.326-0.054-0.543-0.054
			c-1.122,0-1.919,0.851-2.137,2.047c-0.036,0.218-0.072,0.471-0.072,0.742v4.673h-1.575V31.432z"/>
		<path fill="#FFFFFF" d="M163.999,33.008c0,3.241-2.245,4.654-4.364,4.654c-2.372,0-4.201-1.739-4.201-4.51
			c0-2.933,1.919-4.653,4.346-4.653C162.297,28.499,163.999,30.328,163.999,33.008z M157.045,33.098
			c0,1.919,1.105,3.368,2.662,3.368c1.521,0,2.662-1.43,2.662-3.405c0-1.484-0.742-3.368-2.626-3.368
			C157.861,29.693,157.045,31.432,157.045,33.098z"/>
		<path fill="#FFFFFF" d="M165.791,31.07c0-0.906-0.018-1.648-0.073-2.373h1.394l0.073,1.413h0.054
			c0.489-0.834,1.304-1.611,2.753-1.611c1.195,0,2.1,0.724,2.481,1.756h0.036c0.272-0.489,0.616-0.869,0.978-1.141
			c0.525-0.399,1.105-0.615,1.938-0.615c1.159,0,2.879,0.76,2.879,3.802v5.162h-1.557V32.5c0-1.684-0.616-2.698-1.902-2.698
			c-0.905,0-1.611,0.67-1.883,1.449c-0.072,0.218-0.127,0.507-0.127,0.797v5.415h-1.558v-5.252c0-1.394-0.616-2.409-1.829-2.409
			c-0.996,0-1.72,0.797-1.974,1.594c-0.09,0.235-0.127,0.506-0.127,0.778v5.289h-1.557V31.07z"/>
		<path fill="#FFFFFF" d="M66.538,59.939l-3.097-12.205h1.666l1.449,6.175c0.362,1.521,0.688,3.042,0.905,4.219h0.036
			c0.199-1.213,0.58-2.662,0.996-4.238l1.63-6.157h1.648l1.485,6.193c0.344,1.449,0.67,2.898,0.851,4.184h0.036
			c0.254-1.34,0.598-2.698,0.978-4.219l1.612-6.157h1.612l-3.459,12.205h-1.648l-1.539-6.356c-0.38-1.558-0.634-2.752-0.797-3.984
			h-0.036c-0.217,1.214-0.489,2.409-0.942,3.984l-1.739,6.356H66.538z"/>
		<path fill="#FFFFFF" d="M81.466,48.711c0.018,0.544-0.381,0.978-1.014,0.978c-0.561,0-0.96-0.434-0.96-0.978
			c0-0.561,0.417-0.995,0.996-0.995C81.086,47.715,81.466,48.149,81.466,48.711z M79.691,59.939v-8.765h1.594v8.765H79.691z"/>
		<path fill="#FFFFFF" d="M83.602,53.546c0-0.905-0.018-1.648-0.072-2.372h1.413l0.09,1.449h0.036
			c0.435-0.833,1.449-1.648,2.898-1.648c1.213,0,3.097,0.725,3.097,3.73v5.234H89.47v-5.052c0-1.413-0.525-2.591-2.028-2.591
			c-1.05,0-1.865,0.743-2.137,1.63c-0.072,0.199-0.109,0.472-0.109,0.743v5.269h-1.594V53.546z"/>
		<path fill="#FFFFFF" d="M101.004,47.081v10.595c0,0.779,0.018,1.665,0.072,2.263h-1.431l-0.072-1.521h-0.036
			c-0.489,0.978-1.557,1.72-2.988,1.72c-2.119,0-3.749-1.792-3.749-4.455c-0.018-2.916,1.793-4.708,3.93-4.708
			c1.34,0,2.246,0.633,2.644,1.34h0.036v-5.234H101.004z M99.41,54.741c0-0.199-0.018-0.471-0.072-0.67
			c-0.236-1.015-1.105-1.847-2.3-1.847c-1.648,0-2.626,1.449-2.626,3.387c0,1.775,0.869,3.241,2.59,3.241
			c1.068,0,2.046-0.706,2.336-1.901c0.054-0.218,0.072-0.434,0.072-0.688V54.741z"/>
		<path fill="#FFFFFF" d="M111.361,55.484c0,3.242-2.246,4.654-4.365,4.654c-2.372,0-4.201-1.739-4.201-4.509
			c0-2.934,1.92-4.654,4.346-4.654C109.658,50.975,111.361,52.804,111.361,55.484z M104.407,55.574c0,1.921,1.105,3.369,2.662,3.369
			c1.521,0,2.662-1.432,2.662-3.405c0-1.485-0.742-3.368-2.626-3.368S104.407,53.909,104.407,55.574z"/>
		<path fill="#FFFFFF" d="M113.594,51.174l1.159,4.455c0.254,0.978,0.489,1.883,0.652,2.789h0.054
			c0.199-0.888,0.489-1.829,0.779-2.77l1.431-4.473h1.34l1.358,4.383c0.326,1.05,0.58,1.973,0.779,2.861h0.054
			c0.145-0.888,0.38-1.811,0.67-2.844l1.25-4.4h1.575l-2.825,8.765h-1.449l-1.34-4.183c-0.308-0.978-0.561-1.847-0.779-2.88h-0.036
			c-0.217,1.05-0.489,1.956-0.797,2.898l-1.413,4.165h-1.449l-2.644-8.765H113.594z"/>
		<path fill="#FFFFFF" d="M125.781,58.309c0.471,0.308,1.304,0.634,2.101,0.634c1.159,0,1.702-0.58,1.702-1.304
			c0-0.76-0.453-1.177-1.63-1.611c-1.576-0.561-2.318-1.43-2.318-2.482c0-1.412,1.141-2.571,3.024-2.571
			c0.887,0,1.666,0.253,2.155,0.543l-0.399,1.159c-0.344-0.217-0.978-0.506-1.793-0.506c-0.942,0-1.467,0.543-1.467,1.195
			c0,0.725,0.525,1.05,1.666,1.485c1.521,0.58,2.3,1.34,2.3,2.644c0,1.539-1.195,2.625-3.278,2.625c-0.96,0-1.847-0.235-2.463-0.597
			L125.781,58.309z"/>
		<path fill="#FFFFFF" d="M137.061,47.878c0.76-0.127,1.757-0.235,3.024-0.235c1.558,0,2.698,0.362,3.423,1.014
			c0.67,0.58,1.068,1.467,1.068,2.554c0,1.104-0.326,1.973-0.941,2.608c-0.833,0.886-2.191,1.34-3.731,1.34
			c-0.471,0-0.905-0.018-1.268-0.109v4.889h-1.575V47.878z M138.636,53.763c0.344,0.09,0.779,0.127,1.304,0.127
			c1.902,0,3.061-0.924,3.061-2.608c0-1.611-1.141-2.39-2.879-2.39c-0.688,0-1.213,0.054-1.486,0.126V53.763z"/>
		<path fill="#FFFFFF" d="M146.157,47.081h1.594v5.47h0.036c0.254-0.453,0.652-0.851,1.141-1.123
			c0.471-0.271,1.032-0.452,1.63-0.452c1.177,0,3.06,0.725,3.06,3.749v5.216h-1.594v-5.035c0-1.412-0.525-2.608-2.028-2.608
			c-1.032,0-1.847,0.725-2.137,1.594c-0.09,0.218-0.108,0.452-0.108,0.76v5.288h-1.594V47.081z"/>
		<path fill="#FFFFFF" d="M163.911,55.484c0,3.242-2.245,4.654-4.364,4.654c-2.372,0-4.201-1.739-4.201-4.509
			c0-2.934,1.919-4.654,4.346-4.654C162.209,50.975,163.911,52.804,163.911,55.484z M156.956,55.574
			c0,1.921,1.105,3.369,2.662,3.369c1.521,0,2.662-1.432,2.662-3.405c0-1.485-0.743-3.368-2.626-3.368
			C157.771,52.17,156.956,53.909,156.956,55.574z"/>
		<path fill="#FFFFFF" d="M165.702,53.546c0-0.905-0.018-1.648-0.073-2.372h1.413l0.09,1.449h0.036
			c0.435-0.833,1.449-1.648,2.898-1.648c1.213,0,3.097,0.725,3.097,3.73v5.234h-1.594v-5.052c0-1.413-0.525-2.591-2.028-2.591
			c-1.05,0-1.865,0.743-2.137,1.63c-0.072,0.199-0.108,0.472-0.108,0.743v5.269h-1.594V53.546z"/>
		<path fill="#FFFFFF" d="M176.443,55.847c0.037,2.154,1.413,3.042,3.006,3.042c1.141,0,1.829-0.199,2.427-0.452l0.271,1.141
			c-0.561,0.253-1.521,0.543-2.916,0.543c-2.698,0-4.31-1.774-4.31-4.418s1.558-4.727,4.111-4.727c2.861,0,3.622,2.517,3.622,4.129
			c0,0.326-0.037,0.58-0.054,0.743H176.443z M181.115,54.705c0.018-1.014-0.417-2.589-2.21-2.589c-1.611,0-2.318,1.485-2.445,2.589
			H181.115z"/>
		<path fill="#FFFFFF" d="M188.302,58.019c0.706,0.435,1.739,0.797,2.825,0.797c1.611,0,2.553-0.851,2.553-2.083
			c0-1.141-0.652-1.792-2.3-2.426c-1.992-0.707-3.223-1.739-3.223-3.46c0-1.901,1.575-3.313,3.948-3.313
			c1.25,0,2.155,0.29,2.698,0.597l-0.435,1.286c-0.398-0.218-1.213-0.58-2.318-0.58c-1.666,0-2.3,0.996-2.3,1.829
			c0,1.141,0.743,1.703,2.427,2.355c2.064,0.797,3.115,1.792,3.115,3.586c0,1.883-1.394,3.513-4.274,3.513
			c-1.177,0-2.463-0.344-3.115-0.779L188.302,58.019z"/>
		<path fill="#FFFFFF" d="M198.719,48.657v2.517h2.282v1.213h-2.282v4.727c0,1.087,0.308,1.703,1.195,1.703
			c0.417,0,0.724-0.055,0.924-0.109l0.073,1.196c-0.308,0.126-0.797,0.217-1.413,0.217c-0.743,0-1.341-0.235-1.721-0.67
			c-0.452-0.471-0.616-1.25-0.616-2.281v-4.781h-1.358v-1.213h1.358v-2.1L198.719,48.657z"/>
		<path fill="#FFFFFF" d="M210.296,55.484c0,3.242-2.245,4.654-4.364,4.654c-2.372,0-4.201-1.739-4.201-4.509
			c0-2.934,1.919-4.654,4.346-4.654C208.594,50.975,210.296,52.804,210.296,55.484z M203.341,55.574
			c0,1.921,1.105,3.369,2.662,3.369c1.521,0,2.662-1.432,2.662-3.405c0-1.485-0.742-3.368-2.626-3.368
			C204.157,52.17,203.341,53.909,203.341,55.574z"/>
		<path fill="#FFFFFF" d="M212.087,53.909c0-1.033-0.018-1.919-0.073-2.735h1.394l0.054,1.72h0.073
			c0.398-1.177,1.358-1.919,2.426-1.919c0.182,0,0.308,0.018,0.453,0.054v1.504c-0.163-0.037-0.326-0.055-0.543-0.055
			c-1.123,0-1.919,0.852-2.137,2.047c-0.037,0.218-0.073,0.471-0.073,0.743v4.672h-1.575V53.909z"/>
		<path fill="#FFFFFF" d="M218.578,55.847c0.037,2.154,1.413,3.042,3.006,3.042c1.141,0,1.829-0.199,2.427-0.452l0.271,1.141
			c-0.561,0.253-1.521,0.543-2.916,0.543c-2.698,0-4.31-1.774-4.31-4.418s1.558-4.727,4.111-4.727c2.861,0,3.622,2.517,3.622,4.129
			c0,0.326-0.037,0.58-0.054,0.743H218.578z M223.25,54.705c0.018-1.014-0.417-2.589-2.21-2.589c-1.611,0-2.318,1.485-2.445,2.589
			H223.25z"/>
	</g>
</g>
</svg>
