<svg id="Ebene_1" xmlns="http://www.w3.org/2000/svg" viewBox="0 0 100 100"><style>.st0{fill:#149cd6}</style><path class="st0" d="M50 .9C22.9.9.9 22.9.9 50s22 49.1 49.1 49.1 49.1-22 49.1-49.1S77.1.9 50 .9zm0 4.5c24.7 0 44.6 20 44.6 44.6S74.7 94.6 50 94.6 5.4 74.7 5.4 50 25.3 5.4 50 5.4zm25.7 16.7h-.2c-.3 0-.6.1-.8.3L46.7 38c-.2.1-.3.2-.5.3-3.7 1.2-6.6 4.1-7.9 7.8-.1.1-.3.3-.3.5L22.4 74.5c-.6 1.1-.3 2.4.8 3.1.7.4 1.6.4 2.2 0L53.3 62l.6-.3c3.7-1.2 6.6-4.2 7.8-7.9.1-.1.2-.3.3-.4l15.6-27.9c.6-1.1.2-2.4-.9-3-.2-.3-.6-.4-1-.4zm-5.8 8.1l-8.5 15.2c-1.2-3-3.7-5.4-6.7-6.7l15.2-8.5zM50 42.2c4.3 0 7.8 3.5 7.8 7.8s-3.5 7.8-7.8 7.8-7.8-3.5-7.8-7.8 3.5-7.8 7.8-7.8zM38.7 54.7c1.2 3 3.7 5.4 6.7 6.7l-15.2 8.5 8.5-15.2z"/></svg>